<svg width="24" height="24" viewBox="0 0 24 24" fill="none" xmlns="http://www.w3.org/2000/svg">
<path d="M12.002 21.041C9.542 21.041 9.252 21.028 8.292 20.986C7.54337 20.9614 6.80443 20.8092 6.107 20.536C5.51018 20.3037 4.96818 19.9499 4.51542 19.497C4.06266 19.044 3.70903 18.5019 3.477 17.905C3.21431 17.205 3.07262 16.4655 3.058 15.718C3.002 14.76 3.002 14.446 3.002 12.005C3.002 9.538 3.015 9.25 3.058 8.295C3.07294 7.54852 3.21462 6.81001 3.477 6.111C3.70877 5.51334 4.06263 4.97058 4.51599 4.51739C4.96935 4.0642 5.51225 3.71054 6.11 3.479C6.80864 3.2152 7.54734 3.07314 8.294 3.059C9.249 3.005 9.563 3.005 12.002 3.005C14.482 3.005 14.767 3.018 15.712 3.059C16.46 3.073 17.202 3.215 17.902 3.479C18.4996 3.71081 19.0423 4.06456 19.4957 4.51772C19.949 4.97087 20.303 5.51349 20.535 6.111C20.802 6.821 20.945 7.571 20.956 8.328C21.012 9.286 21.012 9.599 21.012 12.039C21.012 14.479 20.998 14.799 20.956 15.746C20.9411 16.4942 20.799 17.2344 20.536 17.935C20.3034 18.5323 19.9491 19.0748 19.4956 19.5279C19.0422 19.981 18.4995 20.3348 17.902 20.567C17.202 20.829 16.463 20.971 15.716 20.986C14.761 21.041 14.448 21.041 12.002 21.041ZM11.968 4.588C9.522 4.588 9.268 4.6 8.313 4.643C7.74265 4.65046 7.1778 4.75565 6.643 4.954C6.25293 5.10352 5.89852 5.33311 5.60262 5.62798C5.30671 5.92285 5.07588 6.27646 4.925 6.666C4.725 7.206 4.62 7.777 4.614 8.353C4.561 9.322 4.561 9.576 4.561 12.005C4.561 14.405 4.57 14.696 4.614 15.659C4.623 16.229 4.728 16.794 4.925 17.329C5.231 18.116 5.855 18.738 6.644 19.04C7.17811 19.2396 7.74285 19.3448 8.313 19.351C9.281 19.407 9.536 19.407 11.968 19.407C14.421 19.407 14.675 19.395 15.622 19.351C16.1924 19.3441 16.7573 19.2389 17.292 19.04C17.68 18.8893 18.0324 18.6596 18.3268 18.3654C18.6212 18.0712 18.8511 17.7189 19.002 17.331C19.202 16.791 19.307 16.219 19.313 15.643H19.324C19.367 14.687 19.367 14.432 19.367 11.989C19.367 9.546 19.356 9.289 19.313 8.334C19.304 7.76446 19.1988 7.20053 19.002 6.666C18.8515 6.27755 18.6217 5.9247 18.3273 5.62995C18.0329 5.3352 17.6803 5.10499 17.292 4.954C16.7575 4.75468 16.1924 4.64946 15.622 4.643C14.655 4.588 14.402 4.588 11.968 4.588ZM12.002 16.624C11.0876 16.6246 10.1935 16.354 9.43289 15.8464C8.67226 15.3388 8.07925 14.6171 7.72886 13.7725C7.37847 12.9278 7.28643 11.9983 7.46439 11.1013C7.64235 10.2044 8.08231 9.38034 8.72863 8.73346C9.37495 8.08658 10.1986 7.64591 11.0954 7.46717C11.9922 7.28844 12.9218 7.37967 13.7668 7.72933C14.6117 8.07899 15.334 8.67138 15.8422 9.43156C16.3504 10.1917 16.6218 11.0856 16.622 12C16.6204 13.2252 16.1333 14.3998 15.2673 15.2665C14.4014 16.1332 13.2272 16.6214 12.002 16.624ZM12.002 8.998C11.4087 8.998 10.8286 9.17395 10.3353 9.50359C9.84194 9.83324 9.45742 10.3018 9.23036 10.8499C9.0033 11.3981 8.94389 12.0013 9.05964 12.5833C9.1754 13.1652 9.46112 13.6998 9.88068 14.1193C10.3002 14.5389 10.8348 14.8246 11.4167 14.9404C11.9987 15.0561 12.6019 14.9967 13.15 14.7696C13.6982 14.5426 14.1668 14.1581 14.4964 13.6647C14.8261 13.1714 15.002 12.5913 15.002 11.998C15.0001 11.2029 14.6835 10.4409 14.1213 9.87872C13.5591 9.31651 12.7971 8.99985 12.002 8.998ZM16.802 8.285C16.6604 8.28447 16.5204 8.25607 16.3898 8.20141C16.2592 8.14675 16.1406 8.06691 16.0409 7.96643C15.8395 7.76352 15.7269 7.4889 15.728 7.203C15.7291 6.9171 15.8437 6.64332 16.0466 6.44191C16.2495 6.2405 16.5241 6.12794 16.81 6.129C17.0959 6.13006 17.3697 6.24465 17.5711 6.44757C17.7725 6.65048 17.8851 6.9251 17.884 7.211C17.8829 7.4969 17.7683 7.77068 17.5654 7.97209C17.3625 8.1735 17.0879 8.28606 16.802 8.285Z" fill="white"/>
</svg>
