<svg width="24" height="24" viewBox="0 0 24 24" fill="none" xmlns="http://www.w3.org/2000/svg">
<path d="M19.995 6.688C20.8914 6.15209 21.5622 5.30824 21.882 4.314C21.0397 4.81382 20.118 5.1659 19.157 5.355C18.5088 4.66935 17.6531 4.21592 16.7218 4.0646C15.7905 3.91328 14.8353 4.07248 14.0034 4.51766C13.1715 4.96283 12.5091 5.66926 12.1183 6.52806C11.7276 7.38686 11.6301 8.35035 11.841 9.27C10.1349 9.18434 8.46584 8.74088 6.94222 7.96838C5.41859 7.19589 4.07444 6.11164 2.997 4.786C2.44906 5.7311 2.2814 6.84933 2.52805 7.91358C2.7747 8.97782 3.41718 9.90829 4.325 10.516C3.64371 10.4941 2.97753 10.3096 2.382 9.978V10.032C2.38219 11.023 2.72513 11.9834 3.35266 12.7503C3.98019 13.5173 4.85368 14.0436 5.825 14.24C5.19306 14.4119 4.53021 14.4372 3.887 14.314C4.16173 15.1663 4.69571 15.9116 5.41441 16.4458C6.13311 16.9801 7.00066 17.2766 7.896 17.294C6.37583 18.4871 4.49848 19.1342 2.566 19.131C2.223 19.131 1.881 19.111 1.541 19.072C3.50341 20.333 5.78738 21.0023 8.12 21C9.7266 21.011 11.3194 20.7027 12.8058 20.093C14.2923 19.4832 15.6427 18.5841 16.7787 17.448C17.9147 16.3119 18.8137 14.9614 19.4233 13.4749C20.033 11.9884 20.3412 10.3956 20.33 8.789C20.33 8.603 20.326 8.418 20.317 8.234C21.1575 7.62662 21.8828 6.87416 22.459 6.012C21.676 6.35905 20.8455 6.58691 19.995 6.688Z" fill="white"/>
</svg>
