<?xml version="1.0" encoding="UTF-8"?> <svg xmlns="http://www.w3.org/2000/svg" width="117" height="18" viewBox="0 0 117 18" fill="none"> <path d="M0.390625 17V1H6.70313C7.91146 1 8.94271 1.21615 9.79688 1.64844C10.6563 2.07552 11.3099 2.68229 11.7578 3.46875C12.2109 4.25 12.4375 5.16927 12.4375 6.22656C12.4375 7.28906 12.2083 8.20312 11.75 8.96875C11.2917 9.72917 10.6276 10.3125 9.75781 10.7187C8.89323 11.125 7.84635 11.3281 6.61719 11.3281H2.39063V8.60937H6.07031C6.71615 8.60937 7.2526 8.52083 7.67969 8.34375C8.10677 8.16667 8.42448 7.90104 8.63281 7.54688C8.84635 7.19271 8.95313 6.7526 8.95313 6.22656C8.95313 5.69531 8.84635 5.2474 8.63281 4.88281C8.42448 4.51823 8.10417 4.24219 7.67188 4.05469C7.24479 3.86198 6.70573 3.76562 6.05469 3.76562H3.77344V17H0.390625ZM9.03125 9.71875L13.0078 17H9.27344L5.38281 9.71875H9.03125ZM15.8281 17V1H26.6094V3.78906H19.2109V7.60156H26.0547V10.3906H19.2109V14.2109H26.6406V17H15.8281ZM30.2988 17V1H40.8926V3.78906H33.6816V7.60156H40.1895V10.3906H33.6816V17H30.2988ZM44.168 17V1H54.9492V3.78906H47.5508V7.60156H54.3945V10.3906H47.5508V14.2109H54.9805V17H44.168ZM58.6387 17V1H64.9512C66.1595 1 67.1908 1.21615 68.0449 1.64844C68.9043 2.07552 69.5579 2.68229 70.0059 3.46875C70.459 4.25 70.6855 5.16927 70.6855 6.22656C70.6855 7.28906 70.4564 8.20312 69.998 8.96875C69.5397 9.72917 68.8757 10.3125 68.0059 10.7187C67.1413 11.125 66.0944 11.3281 64.8652 11.3281H60.6387V8.60937H64.3184C64.9642 8.60937 65.5007 8.52083 65.9277 8.34375C66.3548 8.16667 66.6725 7.90104 66.8809 7.54688C67.0944 7.19271 67.2012 6.7526 67.2012 6.22656C67.2012 5.69531 67.0944 5.2474 66.8809 4.88281C66.6725 4.51823 66.3522 4.24219 65.9199 4.05469C65.4928 3.86198 64.9538 3.76562 64.3027 3.76562H62.0215V17H58.6387ZM67.2793 9.71875L71.2559 17H67.5215L63.6309 9.71875H67.2793ZM74.0762 17V1H84.8574V3.78906H77.459V7.60156H84.3027V10.3906H77.459V14.2109H84.8887V17H74.0762ZM97.2266 5.60156C97.1641 4.97135 96.8958 4.48177 96.4219 4.13281C95.9479 3.78385 95.3047 3.60937 94.4922 3.60937C93.9401 3.60937 93.474 3.6875 93.0938 3.84375C92.7135 3.99479 92.4219 4.20573 92.2188 4.47656C92.0208 4.7474 91.9219 5.05469 91.9219 5.39844C91.9115 5.6849 91.9714 5.9349 92.1016 6.14844C92.237 6.36198 92.4219 6.54687 92.6562 6.70312C92.8906 6.85417 93.1615 6.98698 93.4687 7.10156C93.776 7.21094 94.1042 7.30469 94.4531 7.38281L95.8906 7.72656C96.5885 7.88281 97.2292 8.09115 97.8125 8.35156C98.3958 8.61198 98.901 8.93229 99.3281 9.3125C99.7552 9.69271 100.086 10.1406 100.32 10.6562C100.56 11.1719 100.682 11.763 100.687 12.4297C100.682 13.4089 100.432 14.2578 99.9375 14.9766C99.4479 15.6901 98.7396 16.2448 97.8125 16.6406C96.8906 17.0312 95.7786 17.2266 94.4766 17.2266C93.1849 17.2266 92.0599 17.0286 91.1016 16.6328C90.1484 16.237 89.4036 15.651 88.8672 14.875C88.3359 14.0937 88.0573 13.1276 88.0312 11.9766H91.3047C91.3411 12.513 91.4948 12.9609 91.7656 13.3203C92.0417 13.6745 92.4089 13.9427 92.8672 14.125C93.3307 14.3021 93.8542 14.3906 94.4375 14.3906C95.0104 14.3906 95.5078 14.3073 95.9297 14.1406C96.3568 13.974 96.6875 13.7422 96.9219 13.4453C97.1563 13.1484 97.2734 12.8073 97.2734 12.4219C97.2734 12.0625 97.1667 11.7604 96.9531 11.5156C96.7448 11.2708 96.4375 11.0625 96.0313 10.8906C95.6302 10.7187 95.138 10.5625 94.5547 10.4219L92.8125 9.98437C91.4635 9.65625 90.3984 9.14323 89.6172 8.44531C88.8359 7.7474 88.4479 6.80729 88.4531 5.625C88.4479 4.65625 88.7057 3.8099 89.2266 3.08594C89.7526 2.36198 90.474 1.79687 91.3906 1.39062C92.3073 0.984374 93.349 0.781249 94.5156 0.781249C95.7031 0.781249 96.7396 0.984374 97.625 1.39062C98.5156 1.79687 99.2083 2.36198 99.7031 3.08594C100.198 3.8099 100.453 4.64844 100.469 5.60156H97.2266ZM103.354 3.78906V1H116.494V3.78906H111.596V17H108.252V3.78906H103.354Z" fill="#60A5FA"></path> </svg> 