<?xml version="1.0" encoding="UTF-8"?> <svg xmlns="http://www.w3.org/2000/svg" width="2129" height="1016" viewBox="0 0 2129 1016" fill="none"> <rect width="2129" height="1016" fill="white"></rect> <path d="M1627.8 834.403C1621 825.903 1615.9 816.303 1611.6 806.403C1609.5 801.503 1607.5 796.403 1605.6 791.403C1604.7 789.003 1603.7 786.703 1603 784.303C1602.2 781.803 1601.9 780.503 1603.1 778.103C1603.1 776.403 1603.8 775.703 1605.1 775.903C1606.2 775.603 1606.9 776.103 1607.3 777.403C1608.3 777.303 1609.3 777.103 1610.2 777.003C1604.2 758.903 1600.3 740.203 1598.6 721.303C1597.8 712.103 1597.5 702.803 1597.7 693.503C1597.8 689.203 1598 684.903 1598.4 680.503C1598.5 678.803 1598.3 674.003 1599.3 672.603C1600.4 672.303 1601.4 672.003 1602.5 671.803C1604.3 670.303 1605.7 670.303 1606.6 671.903C1607.7 672.803 1608.4 674.403 1609.1 675.603C1627.4 706.003 1639.6 740.303 1645.5 775.203C1648.9 795.303 1650.2 815.603 1649.3 836.003C1649.2 837.903 1652.2 837.903 1652.3 836.003C1653.9 795.503 1647.2 754.803 1632.5 717.003C1628.8 707.603 1624.7 698.403 1620.1 689.403C1618 685.203 1615.7 681.103 1613.4 677.103C1611.5 673.803 1609.6 669.803 1606.4 667.603C1600.2 663.403 1596.6 669.403 1595.9 674.903C1594.6 685.303 1594.4 695.903 1594.7 706.403C1595.4 730.703 1599.6 754.703 1607.2 777.703C1607.7 779.303 1610.2 779.103 1610.1 777.303C1610.1 773.303 1605.6 771.603 1602.2 773.303C1596.2 776.203 1599.6 784.503 1601.2 788.903C1607.4 805.703 1614.1 822.303 1625.4 836.403C1626.9 838.103 1629 835.903 1627.8 834.403V834.403Z" fill="#E8E8E8"></path> <path d="M1645.4 759.603C1646.2 746.303 1647.9 733.103 1650.8 720.003C1652.2 713.903 1653.7 707.803 1655.6 701.803C1656.5 698.803 1657.5 695.803 1658.5 692.903C1659 691.403 1659.5 689.903 1660.1 688.503C1660.3 687.903 1660.5 687.303 1660.8 686.703C1661.2 684.603 1662.6 683.403 1664.9 683.003C1664.7 684.703 1667.4 685.003 1667.8 683.403C1669.8 676.803 1686 634.303 1695.9 641.603C1698.8 643.703 1699.6 648.603 1700.1 651.903C1700.9 656.503 1701.6 661.203 1702.1 665.803C1703 673.703 1703.6 681.603 1703.8 689.603C1704.7 722.103 1699.8 754.803 1689.4 785.703C1683.4 803.403 1675.6 820.303 1666.2 836.403C1665.2 838.103 1667.8 839.603 1668.8 837.903C1687.7 805.703 1699.8 769.903 1704.6 733.003C1707 714.403 1707.6 695.603 1706.2 676.903C1705.5 668.003 1704.5 659.103 1702.9 650.303C1702 645.503 1699.8 638.403 1694.1 637.503C1686.6 636.303 1680.8 648.703 1677.8 653.703C1672.3 662.803 1668.1 672.503 1665 682.603C1666 682.703 1667 682.903 1667.9 683.003C1668.5 678.203 1662.5 677.903 1660.1 681.003C1658.3 683.303 1657.5 686.703 1656.6 689.403C1654.9 694.103 1653.4 698.903 1652 703.703C1646.7 721.903 1643.6 740.603 1642.5 759.503C1642.3 761.503 1645.3 761.503 1645.4 759.603V759.603Z" fill="#E8E8E8"></path> <path d="M1598.4 671.503C1620.2 722.403 1633.9 776.503 1638.9 831.603C1639.1 833.503 1642.1 833.503 1641.9 831.603C1636.8 775.903 1623 721.403 1601 669.903C1600.2 668.203 1597.6 669.803 1598.4 671.503V671.503Z" fill="#E8E8E8"></path> <path d="M1597.8 737.403C1608.2 742.603 1617.8 749.103 1626.5 756.703C1627.9 758.003 1630.1 755.903 1628.6 754.603C1619.6 746.803 1609.9 740.203 1599.2 734.803C1597.6 734.003 1596 736.603 1597.8 737.403V737.403Z" fill="#E8E8E8"></path> <path d="M1625.6 708.103C1622.8 713.603 1620.7 719.403 1619.4 725.503C1619 727.403 1621.9 728.203 1622.3 726.303C1623.6 720.503 1625.5 714.903 1628.2 709.603C1629.1 707.903 1626.5 706.403 1625.6 708.103V708.103Z" fill="#E8E8E8"></path> <path d="M1691 643.903C1684.5 702.003 1677.4 762.003 1649.1 814.203C1648.2 815.903 1650.8 817.403 1651.7 815.703C1680.3 763.003 1687.4 702.603 1694 643.903C1694.2 642.003 1691.2 642.003 1691 643.903V643.903Z" fill="#E8E8E8"></path> <path d="M1653.6 700.803C1661.6 719.603 1667.5 739.103 1671.4 759.103C1671.8 761.003 1674.7 760.203 1674.3 758.303C1670.3 738.003 1664.2 718.303 1656.2 699.303C1655.4 697.503 1652.9 699.003 1653.6 700.803V700.803Z" fill="#E8E8E8"></path> <path d="M1683.7 715.903C1691.2 706.403 1698.7 696.903 1706.2 687.503C1707.4 686.003 1705.3 683.903 1704.1 685.403C1696.6 694.903 1689.1 704.403 1681.6 713.803C1680.4 715.203 1682.5 717.403 1683.7 715.903V715.903Z" fill="#E8E8E8"></path> <path d="M441 821.102C434.5 814.102 427.9 806.902 422.6 798.902C420.1 795.002 417.8 791.002 416 786.702C415 784.302 410.3 771.502 416.8 774.102C418.4 774.702 419.1 772.602 418.3 771.602C411.7 763.202 407.3 753.402 403.5 743.502C399.9 734.102 396.4 724.602 393.1 715.102C389.5 704.702 386.4 694.002 385.2 683.102C384.3 674.502 383.4 662.702 389.6 655.602C398.7 645.302 407.9 662.302 412.2 668.702C418 677.302 423.7 686.102 429.2 694.902C440.1 712.802 450 731.402 457.3 751.202C465.6 773.802 470.2 797.702 469.1 821.802C469 823.702 472 823.702 472.1 821.802C474.3 773.002 453.4 727.502 427.9 687.102C421.6 677.202 415.3 667.202 408.4 657.702C404.5 652.402 398.3 646.902 391.3 650.402C384.9 653.502 382.5 661.802 381.9 668.302C380.8 680.102 383.1 692.102 386.3 703.402C389.9 716.202 394.8 728.602 399.4 741.002C403.7 752.602 408.5 763.902 416.2 773.702C416.7 772.902 417.2 772.002 417.7 771.202C415.1 770.202 412.8 770.502 410.6 772.102C410.2 772.402 409.8 772.902 409.9 773.402C412.1 793.602 425.8 809.102 439 823.302C440.2 824.702 442.3 822.602 441 821.102V821.102Z" fill="#E8E8E8"></path> <path d="M449.2 726.003C446.1 698.003 449.8 669.903 460 643.603C459.2 643.803 458.3 644.003 457.5 644.303C460.6 647.103 462.7 650.303 463.9 654.303C464.3 655.703 466.4 655.803 466.8 654.303C473.6 630.703 483.5 608.203 496.5 587.303C495.6 587.203 494.7 587.103 493.8 586.903C501.6 606.803 506.5 627.803 508.1 649.203C509.5 668.403 510 690.503 498.3 706.803C497.7 707.603 498.3 708.803 499.2 709.003C508.2 711.103 505.5 725.303 504.7 731.703C503.5 742.303 501.7 752.903 499.4 763.303C495 783.403 488.6 803.103 480.5 822.003C479.7 823.803 482.3 825.303 483.1 823.503C492.6 801.503 499.7 778.503 504.2 755.003C506.2 744.203 508.5 732.803 508.7 721.803C508.8 715.503 507.2 707.603 500.1 706.003C500.4 706.703 500.7 707.503 501 708.203C512.7 691.903 512.5 670.103 511.3 650.903C509.9 628.603 504.9 606.703 496.8 586.003C496.3 584.803 494.8 584.503 494.1 585.603C481 606.703 471 629.403 464.1 653.303C465.1 653.303 466 653.303 467 653.303C465.6 648.803 463.3 645.203 459.8 642.003C458.9 641.203 457.7 641.603 457.3 642.703C447 669.203 443.3 697.703 446.4 725.903C446.4 727.903 449.4 727.903 449.2 726.003V726.003Z" fill="#E8E8E8"></path> <path d="M390.7 655.103C404.6 682.603 418.8 710.003 432.1 737.803C445.1 765.203 456.6 793.503 462.8 823.303C463.2 825.203 466.1 824.403 465.7 822.503C459.5 793.003 448.3 765.103 435.4 737.903C422 709.503 407.4 681.603 393.2 653.503C392.4 651.903 389.8 653.403 390.7 655.103V655.103Z" fill="#E8E8E8"></path> <path d="M494.4 591.103C492.3 620.803 483.1 649.203 476.3 678.003C469.5 706.803 464.8 736.103 462.2 765.603C462 767.503 465 767.503 465.2 765.603C467.9 735.103 472.9 704.803 480.1 675.103C486.9 647.303 495.3 619.803 497.4 591.103C497.5 589.103 494.5 589.103 494.4 591.103V591.103Z" fill="#E8E8E8"></path> <path d="M389.1 712.403C404.2 717.503 418 725.303 430.3 735.503C431.8 736.703 433.9 734.603 432.4 733.403C419.7 722.903 405.5 714.903 389.9 709.503C388 708.803 387.2 711.703 389.1 712.403V712.403Z" fill="#E8E8E8"></path> <path d="M456.6 646.003C460 664.103 465 681.903 471.5 699.103C472.2 700.903 475.1 700.103 474.4 698.303C467.9 681.003 463 663.303 459.5 645.203C459.1 643.303 456.3 644.103 456.6 646.003V646.003Z" fill="#E8E8E8"></path> <path d="M467.4 772.203C478.2 758.003 489.3 743.703 505.1 734.803C506.8 733.903 505.3 731.303 503.6 732.203C487.4 741.403 475.9 756.103 464.8 770.703C463.7 772.203 466.3 773.703 467.4 772.203V772.203Z" fill="#E8E8E8"></path> <path d="M1507.4 839.803C1591.5 839.803 1675.7 839.803 1759.8 839.803C1763.7 839.803 1763.7 833.803 1759.8 833.803C1675.7 833.803 1591.5 833.803 1507.4 833.803C1503.5 833.803 1503.5 839.803 1507.4 839.803V839.803Z" fill="#414042"></path> <path d="M593.9 819.803C527.9 819.803 461.9 819.803 395.9 819.803C392 819.803 392 825.803 395.9 825.803C461.9 825.803 527.9 825.803 593.9 825.803C597.7 825.803 597.7 819.803 593.9 819.803V819.803Z" fill="#414042"></path> <path d="M1266.1 888.603C1357.3 888.603 1448.5 888.603 1539.7 888.603C1565.7 888.603 1591.6 888.603 1617.6 888.603C1621.5 888.603 1621.5 882.603 1617.6 882.603C1526.4 882.603 1435.2 882.603 1344 882.603C1318 882.603 1292.1 882.603 1266.1 882.603C1262.3 882.603 1262.2 888.603 1266.1 888.603V888.603Z" fill="#414042"></path> <path d="M1482 841.403C1191 835.603 900 829.803 609 824.003C556.9 823.003 520.5 772.103 536.3 722.503L716 157.103C726.2 125.003 756 103.003 789.7 102.803C1059 100.903 1328.3 98.9027 1597.6 97.0027C1646.8 96.6027 1684.1 141.503 1674.6 189.803L1559.9 778.403C1552.8 815.603 1519.9 842.203 1482 841.403Z" fill="#5199FF" stroke="#414042" stroke-width="6"></path> <path d="M1476.4 836.503C1185.4 831.003 894.4 825.603 603.4 820.103C551.3 819.103 514.9 771.103 530.7 724.303L710.4 190.603C720.6 160.303 750.4 139.603 784.1 139.303C1053.4 137.503 1322.7 135.603 1592 133.803C1641.2 133.503 1678.5 175.803 1669 221.403L1554.3 777.103C1547.2 812.103 1514.3 837.203 1476.4 836.503Z" fill="white" stroke="#414042" stroke-width="6"></path> <path d="M1551 792.003C1541.4 813.103 1522.9 829.003 1500.6 835.203C1498.7 835.703 1499.5 838.603 1501.4 838.103C1524.4 831.703 1543.7 815.203 1553.6 793.503C1554.3 791.803 1551.8 790.203 1551 792.003V792.003Z" fill="#414042"></path> <path d="M797.4 124.903C794.4 124.603 793.3 121.403 794.1 118.803C795.2 115.503 798.4 114.803 801.4 116.303C803.5 117.403 804.6 120.003 803.7 122.303C802.7 124.803 799.8 125.603 797.4 124.703C795.6 124.003 794.8 126.903 796.6 127.603C800.5 129.103 805.3 127.103 806.7 123.003C808.1 118.603 805.3 114.303 801.1 113.003C796.4 111.603 792.3 113.803 791.1 118.703C790.1 123.203 792.9 127.403 797.4 127.903C799.3 128.103 799.3 125.103 797.4 124.903V124.903Z" fill="#414042"></path> <path d="M793.9 122.503C795.1 125.603 799.5 126.603 802.1 124.703C803.8 123.403 804.6 120.903 803.8 118.703C802.9 116.303 800.3 114.903 798 115.303C794.8 115.903 792.7 119.603 793.9 122.503Z" fill="white"></path> <path d="M831.2 124.003C828.2 123.703 827.1 120.503 827.9 117.903C829 114.603 832.2 113.903 835.2 115.403C837.3 116.503 838.4 119.103 837.5 121.403C836.5 123.903 833.6 124.703 831.2 123.803C829.4 123.103 828.6 126.003 830.4 126.703C834.3 128.203 839.1 126.203 840.5 122.103C841.9 117.703 839.1 113.403 834.9 112.103C830.2 110.703 826.1 112.903 824.9 117.803C823.9 122.303 826.7 126.503 831.2 127.003C833.1 127.203 833.1 124.203 831.2 124.003V124.003Z" fill="#414042"></path> <path fill-rule="evenodd" clip-rule="evenodd" d="M827.7 121.603C828.9 124.703 833.3 125.703 835.9 123.803C837.6 122.503 838.4 120.003 837.6 117.803C836.7 115.403 834.1 114.003 831.8 114.403C828.6 115.003 826.5 118.703 827.7 121.603Z" stroke="#414042"></path> <path d="M795.4 116.303C796.8 119.403 798.4 122.403 800.3 125.303C801.3 126.903 803.9 125.403 802.9 123.803C801.1 120.903 799.5 117.903 798 114.803C797.2 113.103 794.6 114.603 795.4 116.303V116.303Z" fill="#414042"></path> <path d="M795.7 125.303C797.1 124.103 798.4 122.803 799.8 121.603C801 120.503 802.2 119.203 803.7 118.403C805.4 117.503 803.9 114.903 802.2 115.803C800.7 116.603 799.5 117.903 798.2 119.103C796.7 120.503 795.1 121.903 793.6 123.303C792.2 124.503 794.3 126.603 795.7 125.303V125.303Z" fill="#414042"></path> <path d="M1167.1 192.803C1158.2 221.403 1149.2 250.103 1140.3 278.703C1134.8 296.503 1147.9 314.503 1166.5 314.803C1290.6 316.303 1414.6 317.703 1538.7 319.203C1552.3 319.403 1564 309.603 1566.4 296.203C1571.7 265.803 1577.1 235.403 1582.4 205.003C1585.4 188.003 1572.3 172.403 1555 172.403C1434.5 172.703 1314 173.003 1193.6 173.303C1181.5 173.303 1170.7 181.203 1167.1 192.803Z" fill="white" stroke="#414042" stroke-width="3"></path> <path d="M690.9 591.503C673.6 641.203 656.3 690.903 639 740.603C628.3 771.403 653.7 802.803 689.7 803.203C929.9 805.703 1170.2 808.303 1410.4 810.803C1436.8 811.103 1459.5 794.203 1464 770.903C1474.4 718.203 1484.7 665.403 1495.1 612.703C1500.9 583.103 1475.5 556.103 1442 556.103C1208.7 556.603 975.4 557.103 742.1 557.603C718.6 557.703 697.9 571.403 690.9 591.503Z" fill="white" stroke="#414042" stroke-width="3"></path> <path d="M1204.7 364.103C1188.6 412.303 1172.5 460.503 1156.4 508.703C1155.8 510.503 1158.7 511.303 1159.3 509.503C1175.4 461.303 1191.5 413.103 1207.6 364.903C1208.2 363.003 1205.3 362.203 1204.7 364.103V364.103Z" fill="#E8E8E8"></path> <path d="M1206.6 364.403C1248.4 362.203 1290.4 358.803 1332.3 358.803C1374 358.803 1415.6 362.403 1457.1 366.003C1459 366.203 1459 363.203 1457.1 363.003C1415.6 359.403 1374 355.903 1332.3 355.803C1290.4 355.803 1248.4 359.203 1206.6 361.403C1204.7 361.503 1204.6 364.503 1206.6 364.403V364.403Z" fill="#E8E8E8"></path> <path d="M1456.6 365.903C1445.4 413.703 1434.1 461.403 1422.9 509.203C1422.5 511.103 1425.4 511.903 1425.8 510.003C1437 462.203 1448.3 414.503 1459.5 366.703C1459.9 364.903 1457 364.103 1456.6 365.903V365.903Z" fill="#E8E8E8"></path> <path d="M1158.2 513.902C1226.8 510.202 1295.5 509.302 1364.2 511.402C1383.8 512.002 1403.3 512.802 1422.9 513.902C1424.8 514.002 1424.8 511.002 1422.9 510.902C1354.3 507.102 1285.6 506.302 1216.9 508.402C1197.3 509.002 1177.8 509.802 1158.2 510.902C1156.3 511.002 1156.2 514.002 1158.2 513.902V513.902Z" fill="#E8E8E8"></path> <path d="M1291.4 508.803C1334.2 486.503 1383.1 483.203 1430.4 480.303C1432.3 480.203 1432.3 477.203 1430.4 477.303C1382.6 480.303 1333.2 483.703 1289.9 506.203C1288.1 507.103 1289.6 509.703 1291.4 508.803V508.803Z" fill="#E8E8E8"></path> <path d="M1359.7 413.603C1364.4 436.503 1366.8 459.803 1366.9 483.203C1366.9 485.103 1369.9 485.103 1369.9 483.203C1369.7 459.503 1367.3 436.003 1362.6 412.803C1362.2 410.903 1359.3 411.703 1359.7 413.603V413.603Z" fill="#E8E8E8"></path> <path d="M1358.6 413.103C1352.5 422.003 1346.5 431.003 1340.4 439.903C1341.3 440.203 1342.3 440.403 1343.2 440.703C1342.7 431.703 1345 423.303 1350.1 415.903C1351.2 414.303 1348.6 412.803 1347.5 414.403C1342.1 422.203 1339.6 431.303 1340.1 440.703C1340.2 442.203 1342 442.703 1342.9 441.503C1349 432.603 1355 423.603 1361.1 414.703C1362.3 413.003 1359.7 411.503 1358.6 413.103V413.103Z" fill="#E8E8E8"></path> <path d="M1348.5 412.303C1345.1 410.803 1341.7 410.103 1338 410.303C1335.8 410.403 1326.9 413.103 1328.2 409.803C1328.7 408.503 1331.5 406.803 1332.6 405.903C1334.7 404.203 1336.9 402.603 1339.2 401.303C1344.3 398.403 1350 397.003 1355.8 397.903C1357.7 398.203 1358.5 395.303 1356.6 395.003C1345 393.203 1332.9 399.503 1325.4 408.203C1323.4 410.503 1323.7 413.703 1327 414.703C1328.8 415.203 1330.8 414.503 1332.5 414.103C1337.4 413.003 1342.2 412.603 1347 414.703C1348.7 415.703 1350.2 413.103 1348.5 412.303V412.303Z" fill="#E8E8E8"></path> <path d="M1358.5 394.803C1362.3 385.803 1369.8 379.203 1379.1 376.403C1378.6 375.603 1378.1 374.703 1377.6 373.903C1374.2 378.303 1372.2 383.103 1371.5 388.603C1371.3 390.503 1374.3 390.503 1374.5 388.603C1375.1 383.903 1376.9 379.703 1379.7 376.003C1380.5 374.903 1379.8 373.003 1378.2 373.503C1367.8 376.603 1359.7 384.003 1355.5 394.003C1354.9 395.803 1357.8 396.603 1358.5 394.803V394.803Z" fill="#E8E8E8"></path> <path d="M1373.7 390.403C1381.5 385.903 1390.7 385.803 1398.6 390.103C1398.6 389.203 1398.6 388.403 1398.6 387.503C1392.3 390.503 1386.3 394.103 1380.6 398.103C1379 399.203 1380.5 401.803 1382.1 400.703C1387.8 396.703 1393.8 393.103 1400.1 390.103C1401.1 389.603 1401 388.003 1400.1 387.503C1391.2 382.603 1380.9 382.703 1372.2 387.803C1370.5 388.803 1372 391.403 1373.7 390.403V390.403Z" fill="#E8E8E8"></path> <path d="M1379.5 400.903C1386 404.503 1392.3 410.403 1390.5 418.603C1391.4 418.503 1392.3 418.403 1393.2 418.203C1389 411.503 1381.8 407.703 1373.9 408.003C1372 408.103 1372 411.103 1373.9 411.003C1380.8 410.703 1387 413.903 1390.6 419.703C1391.2 420.703 1393.1 420.703 1393.3 419.303C1395.3 409.803 1388.7 402.503 1380.9 398.203C1379.3 397.403 1377.8 400.003 1379.5 400.903V400.903Z" fill="#E8E8E8"></path> <path d="M1371.3 410.503C1375.9 434.503 1377.6 458.803 1376.3 483.203C1376.2 485.103 1379.2 485.103 1379.3 483.203C1380.6 458.603 1378.9 433.903 1374.2 409.703C1373.8 407.803 1370.9 408.603 1371.3 410.503V410.503Z" fill="#E8E8E8"></path> <path d="M1368 457.603C1371.3 458.003 1374.4 457.403 1377.4 456.103C1379.2 455.303 1377.6 452.703 1375.9 453.503C1373.4 454.703 1370.7 455.003 1368 454.603C1366.1 454.303 1366.1 457.303 1368 457.603V457.603Z" fill="#E8E8E8"></path> <path d="M1171.2 473.003C1187.6 474.003 1204.2 474.303 1220.5 476.203C1228.5 477.103 1236.2 479.503 1244.1 480.703C1251.8 481.803 1259.3 480.703 1267 479.303C1300.7 473.403 1334.6 476.603 1368.3 480.203C1370.2 480.403 1370.2 477.403 1368.3 477.203C1335.7 473.703 1302.6 470.303 1270 475.703C1260.8 477.203 1252.1 479.003 1242.8 477.403C1235.3 476.103 1228.1 474.103 1220.6 473.203C1204.3 471.303 1187.7 471.003 1171.3 470.003C1169.3 469.803 1169.3 472.803 1171.2 473.003V473.003Z" fill="#E8E8E8"></path> <path d="M1364.5 436.903C1364.9 438.603 1366.6 439.003 1368.2 438.703C1371.3 438.203 1374.5 437.103 1377.5 436.203C1379.4 435.703 1378.6 432.803 1376.7 433.303C1374.9 433.803 1373.1 434.303 1371.3 434.703C1370.5 434.903 1369.6 435.103 1368.8 435.403C1368.4 435.503 1368 435.603 1367.6 435.703C1366.9 435.603 1366.9 435.703 1367.4 436.003C1367 434.203 1364.1 435.003 1364.5 436.903V436.903Z" fill="#E8E8E8"></path> <path d="M1237.8 398.703C1227.9 395.503 1240.8 378.503 1247.7 386.103C1250.2 388.803 1250.1 393.503 1247.8 396.303C1245.2 399.503 1240.7 400.003 1237.2 398.003C1235.5 397.003 1234 399.603 1235.7 400.603C1240.8 403.503 1247.7 402.403 1250.9 397.303C1253.8 392.603 1253 385.303 1247.9 382.403C1236.8 376.203 1223.5 397.303 1237.1 401.703C1238.9 402.203 1239.7 399.303 1237.8 398.703V398.703Z" fill="#E8E8E8"></path> <path d="M1469 374.602C1501.3 376.302 1533.3 380.102 1565.1 386.102C1567 386.502 1567.8 383.602 1565.9 383.202C1533.9 377.102 1501.6 373.202 1469 371.502C1467.1 371.502 1467.1 374.502 1469 374.602V374.602Z" fill="#E8E8E8"></path> <path d="M1468.5 383.303C1499.3 386.603 1530.2 390.103 1560.9 393.803C1562.8 394.003 1562.8 391.003 1560.9 390.803C1530.1 387.103 1499.3 383.603 1468.5 380.303C1466.6 380.103 1466.6 383.103 1468.5 383.303V383.303Z" fill="#E8E8E8"></path> <path d="M1467.5 392.303C1486.1 395.403 1504.8 397.403 1523.6 398.003C1525.5 398.103 1525.5 395.103 1523.6 395.003C1505.1 394.303 1486.6 392.503 1468.3 389.403C1466.4 389.103 1465.6 392.003 1467.5 392.303V392.303Z" fill="#E8E8E8"></path> <path d="M1456.3 446.202C1481.6 449.802 1507 452.802 1532.4 455.202C1534.3 455.402 1534.3 452.402 1532.4 452.202C1507.2 449.802 1482.1 446.802 1457.1 443.302C1455.2 443.002 1454.4 445.902 1456.3 446.202V446.202Z" fill="#E8E8E8"></path> <path d="M1454.4 454.803C1474.5 458.303 1494.6 461.203 1514.8 463.603C1516.7 463.803 1516.7 460.803 1514.8 460.603C1494.8 458.303 1475 455.403 1455.2 451.903C1453.3 451.503 1452.5 454.403 1454.4 454.803V454.803Z" fill="#E8E8E8"></path> <path d="M1452.3 467.503C1477.5 472.503 1502.9 475.903 1528.5 477.503C1530.4 477.603 1530.4 474.603 1528.5 474.503C1503.2 472.803 1478 469.503 1453.1 464.603C1451.2 464.203 1450.4 467.103 1452.3 467.503V467.503Z" fill="#E8E8E8"></path> <path d="M734.2 596.203C780.2 598.503 826.4 596.103 872.4 595.403C918.4 594.703 964.3 594.503 1010.3 594.603C1102.6 594.803 1194.8 596.503 1287.1 598.603C1339.1 599.803 1391 601.203 1443 602.503C1444.9 602.603 1444.9 599.603 1443 599.503C1350.8 597.103 1258.5 594.603 1166.2 593.103C1073.9 591.603 981.7 590.903 889.4 592.103C837.7 592.703 785.8 595.803 734.2 593.103C732.2 593.103 732.2 596.103 734.2 596.203V596.203Z" fill="#E8E8E8"></path> <path d="M732.4 244.003C738.4 244.903 742.6 240.803 754.5 232.003C772.4 218.703 776.2 218.303 778.9 218.503C780.2 218.603 782.6 219.003 793.9 227.503C810.4 239.903 811.4 243.703 816.8 244.003C826.6 244.403 828 232.003 839.7 230.903C850.3 229.903 853.6 239.603 866.7 239.103C876.8 238.803 882.7 232.603 883.6 233.903C884.7 235.603 875.2 248.703 861.5 250.803C851.4 252.303 849.2 246.403 839.4 247.803C825.8 249.803 823.2 262.203 813.2 261.303C807.3 260.703 806.5 256.303 796.3 249.303C790.9 245.603 781.5 239.203 771.2 238.403C752.3 237.003 742.5 255.303 731.1 250.003C725.6 247.503 722.5 240.703 723.2 239.903C723.7 239.103 727.2 243.203 732.4 244.003Z" fill="#002D6D"></path> <path d="M1200.9 192.703C1194.8 220.403 1187.3 247.803 1178.5 274.803C1177.9 276.603 1180.8 277.403 1181.4 275.603C1190.2 248.603 1197.7 221.203 1203.8 193.503C1204.2 191.603 1201.3 190.803 1200.9 192.703V192.703Z" fill="#E8E8E8"></path> <path d="M1180.3 277.103C1190.6 278.303 1200.9 277.803 1211.3 277.603C1222.1 277.303 1232.9 277.103 1243.8 276.803C1265.4 276.303 1287.1 275.703 1308.7 275.203C1310.6 275.203 1310.6 272.203 1308.7 272.203C1287.1 272.703 1265.4 273.303 1243.8 273.803C1233.3 274.103 1222.8 274.303 1212.3 274.603C1201.6 274.903 1191 275.403 1180.3 274.203C1178.4 273.903 1178.4 276.903 1180.3 277.103V277.103Z" fill="#E8E8E8"></path> <path d="M1217.5 220.603C1213.7 238.403 1210.5 256.303 1207.8 274.303C1207.5 276.203 1210.4 277.003 1210.7 275.103C1213.4 257.103 1216.6 239.203 1220.4 221.403C1220.8 219.503 1217.9 218.703 1217.5 220.603V220.603Z" fill="#E8E8E8"></path> <path d="M1219.8 222.203C1225.1 222.503 1230.3 223.003 1235.5 224.003C1235.2 223.403 1234.8 222.803 1234.5 222.203C1229.8 239.103 1225.8 256.203 1222.5 273.403C1222.1 275.303 1225 276.103 1225.4 274.203C1228.7 257.003 1232.7 239.903 1237.4 223.003C1237.6 222.303 1237.2 221.303 1236.4 221.203C1230.9 220.203 1225.5 219.603 1219.9 219.303C1217.8 219.103 1217.8 222.103 1219.8 222.203V222.203Z" fill="#E8E8E8"></path> <path d="M1245.6 237.603C1244.1 249.803 1242.1 261.803 1239.6 273.803C1239.2 275.703 1242.1 276.503 1242.5 274.603C1245.1 262.403 1247.1 250.003 1248.6 237.603C1248.8 235.703 1245.8 235.703 1245.6 237.603V237.603Z" fill="#E8E8E8"></path> <path d="M1247.1 237.803C1252.7 237.603 1258.4 237.703 1264 238.103C1263.5 237.503 1263 236.803 1262.6 236.203C1260.4 248.103 1258.5 260.003 1256.9 272.003C1256.6 273.903 1259.6 273.903 1259.9 272.003C1261.5 260.303 1263.3 248.703 1265.5 237.003C1265.7 236.003 1265.1 235.203 1264.1 235.103C1258.5 234.703 1252.8 234.703 1247.2 234.803C1245.1 234.803 1245.1 237.803 1247.1 237.803V237.803Z" fill="#E8E8E8"></path> <path d="M1282.1 210.403C1278.6 231.303 1274.5 252.203 1270 272.903C1269.6 274.803 1272.5 275.603 1272.9 273.703C1277.4 253.003 1281.5 232.103 1285 211.203C1285.4 209.303 1282.5 208.503 1282.1 210.403V210.403Z" fill="#E8E8E8"></path> <path d="M1284.5 208.903C1284.5 209.103 1284.5 209.203 1284.5 209.403C1284.5 210.203 1285.2 210.903 1286 210.903C1286.8 210.903 1287.5 210.203 1287.5 209.403C1287.5 209.203 1287.5 209.103 1287.5 208.903C1287.5 208.103 1286.8 207.403 1286 207.403C1285.2 207.503 1284.5 208.103 1284.5 208.903V208.903Z" fill="#E8E8E8"></path> <path d="M1285.2 211.403C1289.8 212.403 1294.2 212.903 1298.9 212.803C1298.4 212.203 1297.9 211.503 1297.5 210.903C1293.6 231.803 1290 252.803 1286.6 273.803C1286.3 275.703 1289.2 276.503 1289.5 274.603C1292.9 253.603 1296.5 232.603 1300.4 211.703C1300.6 210.803 1300 209.803 1299 209.803C1294.6 209.803 1290.4 209.403 1286.1 208.503C1284.1 208.103 1283.3 210.903 1285.2 211.403V211.403Z" fill="#E8E8E8"></path> <path d="M1330.9 204.603C1364.9 204.203 1398.8 204.403 1432.8 205.303C1434.7 205.303 1434.7 202.303 1432.8 202.303C1398.8 201.503 1364.9 201.303 1330.9 201.603C1329 201.603 1329 204.603 1330.9 204.603V204.603Z" fill="#E8E8E8"></path> <path d="M1333.2 216.803C1354.3 218.203 1375.5 217.903 1396.6 215.903C1398.5 215.703 1398.5 212.703 1396.6 212.903C1375.5 214.903 1354.3 215.203 1333.2 213.803C1331.3 213.703 1331.3 216.703 1333.2 216.803V216.803Z" fill="#E8E8E8"></path> <path d="M1328.6 231.903C1357.6 231.403 1386.6 231.903 1415.6 233.403C1417.5 233.503 1417.5 230.503 1415.6 230.403C1386.6 228.803 1357.6 228.303 1328.6 228.903C1326.7 228.903 1326.7 231.903 1328.6 231.903V231.903Z" fill="#E8E8E8"></path> <path d="M1484.2 278.302C1474 277.002 1469.1 266.802 1466.2 258.102C1463.5 249.902 1462.5 241.302 1465.6 233.102C1471 218.702 1485.7 207.102 1500.5 203.802C1515.9 200.302 1531.5 208.502 1538.9 222.202C1546.7 236.602 1544 255.102 1534.9 268.202C1523.7 284.302 1500.1 286.102 1483.7 277.602C1482 276.702 1480.5 279.302 1482.2 280.202C1497.9 288.302 1519.6 287.902 1532.9 275.202C1545.9 262.802 1550.1 240.702 1543.3 224.302C1536.8 208.802 1520.4 198.002 1503.4 200.202C1486.6 202.402 1469.7 215.202 1463.3 230.902C1459 241.602 1460.8 252.802 1465 263.202C1468.6 272.002 1474.3 280.002 1484.3 281.302C1486.1 281.502 1486.1 278.502 1484.2 278.302V278.302Z" fill="#E8E8E8"></path> <path d="M1488.4 207.803C1493.1 219.903 1497.4 232.203 1501.5 244.603C1502.1 246.403 1505 245.603 1504.4 243.803C1500.3 231.403 1496 219.203 1491.3 207.003C1490.6 205.303 1487.7 206.003 1488.4 207.803V207.803Z" fill="#E8E8E8"></path> <path d="M1504.6 246.303C1516.4 238.103 1528.1 229.603 1539.5 220.903C1541 219.703 1539.5 217.103 1538 218.303C1526.5 227.003 1514.9 235.503 1503.1 243.703C1501.5 244.803 1503 247.403 1504.6 246.303V246.303Z" fill="#E8E8E8"></path> <path d="M1504.1 246.402C1517.5 245.802 1530.7 243.602 1543.6 239.802C1545.4 239.302 1544.7 236.402 1542.8 236.902C1530.2 240.602 1517.3 242.802 1504.1 243.302C1502.2 243.502 1502.2 246.502 1504.1 246.402V246.402Z" fill="#E8E8E8"></path> <path d="M1501.7 245.403C1493.7 255.703 1485.8 266.003 1477.8 276.303C1476.6 277.803 1479.2 279.303 1480.4 277.803C1488.4 267.503 1496.3 257.203 1504.3 246.903C1505.5 245.403 1502.9 243.903 1501.7 245.403V245.403Z" fill="#E8E8E8"></path> <path d="M736.2 591.103C733.7 590.403 735.2 587.103 736.3 586.003C737.5 584.803 740.5 584.903 742.1 584.903C745 584.803 747.9 584.903 750.9 584.803C756.9 584.803 762.9 584.703 768.9 584.703C780.9 584.603 792.9 584.603 804.9 584.503C828.6 584.403 852.2 584.203 875.9 584.103C923.6 583.803 971.2 583.603 1018.9 583.503C1113.9 583.203 1208.8 583.203 1303.8 583.703C1329.8 583.903 1355.9 583.903 1381.9 585.003C1394.8 585.503 1407.7 586.303 1420.6 587.503C1427 588.103 1433.5 588.803 1439.9 589.603C1442 589.903 1444.1 590.103 1446.2 590.503C1447.9 590.803 1448.9 590.503 1449.5 592.103C1451.1 595.903 1446 599.803 1442.9 600.003C1441 600.103 1441 603.103 1442.9 603.003C1449.6 602.503 1454.3 595.703 1451.8 589.303C1451.6 588.803 1451.3 588.303 1450.8 588.303C1403.1 581.203 1354.8 581.203 1306.7 580.903C1257 580.603 1207.4 580.503 1157.7 580.403C1058.1 580.403 958.4 580.803 858.8 581.303C830.8 581.503 802.8 581.603 774.8 581.803C768.1 581.803 761.5 581.903 754.8 581.903C749.2 581.903 742.6 581.003 737.2 582.603C732 584.103 728.6 592.303 735.4 594.203C737.2 594.503 738 591.603 736.2 591.103V591.103Z" fill="#E8E8E8"></path> <path d="M728.8 608.703C718.8 644.803 706.6 680.303 692.1 714.903C691.4 716.703 694.3 717.503 695 715.703C709.5 681.103 721.7 645.603 731.7 609.503C732.2 607.603 729.3 606.803 728.8 608.703V608.703Z" fill="#E8E8E8"></path> <path d="M729.8 611.702C755.5 614.802 782 612.702 807.8 612.402C809.7 612.402 809.7 609.402 807.8 609.402C782 609.802 755.5 611.802 729.8 608.702C727.8 608.502 727.9 611.502 729.8 611.702V611.702Z" fill="#E8E8E8"></path> <path d="M804.6 612.203C796.1 643.603 787.1 674.803 777.6 706.003C777 707.903 779.9 708.603 780.5 706.803C790 675.703 799 644.403 807.5 613.003C808 611.103 805.1 610.303 804.6 612.203V612.203Z" fill="#E8E8E8"></path> <path d="M693.5 716.403C707.6 716.303 721.6 716.203 735.7 716.103C742.6 716.103 749.4 716.003 756.3 716.003C762.4 716.003 768.5 716.203 774.5 714.803C776.4 714.403 775.6 711.503 773.7 711.903C767.4 713.403 760.8 713.003 754.3 713.003C747.4 713.003 740.6 713.103 733.7 713.103C720.3 713.203 706.9 713.303 693.5 713.303C691.6 713.403 691.6 716.403 693.5 716.403V716.403Z" fill="#E8E8E8"></path> <path d="M820.3 612.903C887.9 611.003 955.6 611.103 1023.2 613.303C1025.1 613.403 1025.1 610.403 1023.2 610.303C955.6 608.103 887.9 607.903 820.3 609.903C818.4 609.903 818.4 612.903 820.3 612.903V612.903Z" fill="#E8E8E8"></path> <path d="M817.5 630.503C856.7 630.403 895.9 630.403 935.2 630.303C937.1 630.303 937.1 627.303 935.2 627.303C896 627.403 856.8 627.403 817.5 627.503C815.5 627.503 815.5 630.503 817.5 630.503V630.503Z" fill="#E8E8E8"></path> <path d="M777.2 712.903C779 709.903 780.3 706.703 781 703.403C781.4 701.503 778.5 700.703 778.1 702.603C777.4 705.703 776.3 708.703 774.6 711.403C773.6 713.003 776.2 714.503 777.2 712.903V712.903Z" fill="#E8E8E8"></path> <path d="M1152.4 621.703C1144.4 659.903 1136.7 698.103 1129.2 736.303C1128.8 738.203 1131.7 739.003 1132.1 737.103C1139.6 698.903 1147.3 660.703 1155.3 622.503C1155.7 620.603 1152.8 619.803 1152.4 621.703V621.703Z" fill="#E8E8E8"></path> <path d="M1129.8 738.803C1170.9 739.903 1211.9 741.003 1253 742.103C1293.6 743.203 1334.2 744.903 1374.8 744.903C1376.7 744.903 1376.7 741.903 1374.8 741.903C1334.2 741.903 1293.6 740.103 1253 739.103C1211.9 738.003 1170.9 736.903 1129.8 735.803C1127.9 735.703 1127.9 738.703 1129.8 738.803V738.803Z" fill="#E8E8E8"></path> <path d="M1132.8 738.503C1145.2 725.103 1157.6 711.603 1170 698.203C1169.3 698.203 1168.6 698.203 1167.9 698.203C1172 703.303 1176.8 707.503 1182.4 710.903C1184.1 711.903 1185.6 709.303 1183.9 708.303C1178.5 705.103 1173.9 701.003 1170 696.103C1169.5 695.503 1168.4 695.603 1167.9 696.103C1155.5 709.503 1143.1 723.003 1130.7 736.403C1129.4 737.803 1131.5 739.903 1132.8 738.503V738.503Z" fill="#E8E8E8"></path> <path d="M1183.2 709.903C1196.5 694.203 1209.9 678.603 1223.2 662.903C1224.4 661.403 1222.3 659.303 1221.1 660.803C1207.8 676.503 1194.4 692.103 1181.1 707.803C1179.8 709.203 1181.9 711.303 1183.2 709.903V709.903Z" fill="#E8E8E8"></path> <path d="M1221.1 661.403C1223.8 665.003 1226.5 668.503 1229.2 672.103C1229.8 672.903 1230.7 673.103 1231.6 672.403C1243.8 662.403 1255.7 651.903 1267.2 641.103C1268.6 639.803 1266.5 637.703 1265.1 639.003C1253.6 649.803 1241.7 660.303 1229.5 670.303C1230.3 670.403 1231.1 670.503 1231.9 670.603C1229.2 667.003 1226.5 663.503 1223.8 659.903C1222.5 658.303 1219.9 659.803 1221.1 661.403V661.403Z" fill="#E8E8E8"></path> <path d="M1264 642.403C1280.7 655.603 1296.8 669.503 1312.4 683.903C1313.8 685.203 1315.9 683.103 1314.5 681.803C1298.9 667.303 1282.8 653.503 1266.1 640.303C1264.6 639.103 1262.5 641.203 1264 642.403V642.403Z" fill="#E8E8E8"></path> <path d="M1314.2 683.503C1334.8 670.403 1349.6 650.203 1369.7 636.403C1371.3 635.303 1369.8 632.703 1368.2 633.803C1348.1 647.603 1333.3 667.803 1312.7 680.903C1311.1 681.903 1312.6 684.503 1314.2 683.503V683.503Z" fill="#E8E8E8"></path> <path d="M1352.2 639.503C1358.5 638.403 1364.6 636.803 1370.7 634.903C1370.1 634.303 1369.5 633.703 1368.9 633.103C1367.8 638.103 1366.8 643.103 1365.7 648.103C1365.3 650.003 1368.2 650.803 1368.6 648.903C1369.7 643.903 1370.7 638.903 1371.8 633.903C1372 632.803 1371.1 631.703 1370 632.103C1363.9 634.003 1357.8 635.603 1351.5 636.703C1349.6 637.003 1350.4 639.903 1352.2 639.503V639.503Z" fill="#E8E8E8"></path> <path d="M1189.2 629.603C1185.7 665.303 1182.1 701.003 1178.6 736.703C1178.4 738.603 1181.4 738.603 1181.6 736.703C1185.1 701.003 1188.7 665.303 1192.2 629.603C1192.3 627.703 1189.3 627.703 1189.2 629.603V629.603Z" fill="#E8E8E8"></path> <path d="M1233.6 623.303C1229.9 661.603 1226.9 700.003 1224.7 738.403C1224.6 740.303 1227.6 740.303 1227.7 738.403C1229.9 700.003 1232.9 661.603 1236.6 623.303C1236.7 621.303 1233.7 621.403 1233.6 623.303V623.303Z" fill="#E8E8E8"></path> <path d="M1317.4 622.203C1313.5 662.203 1310.7 702.203 1309 742.403C1308.9 744.303 1311.9 744.303 1312 742.403C1313.7 702.303 1316.5 662.203 1320.4 622.203C1320.6 620.303 1317.6 620.303 1317.4 622.203V622.203Z" fill="#E8E8E8"></path> <path d="M1267.3 607.603C1264.7 652.203 1262.1 696.703 1259.5 741.303C1259.4 743.203 1262.4 743.203 1262.5 741.303C1265.1 696.703 1267.7 652.203 1270.3 607.603C1270.4 605.603 1267.4 605.603 1267.3 607.603V607.603Z" fill="#E8E8E8"></path> <path d="M955.6 630.003C975.9 631.803 996.2 627.303 1016.5 629.803C1018.4 630.003 1018.4 627.003 1016.5 626.803C996.2 624.303 975.9 628.803 955.6 627.003C953.6 626.903 953.7 629.903 955.6 630.003V630.003Z" fill="#E8E8E8"></path> <path d="M640.7 449.603C676.1 444.403 710.2 458.603 741.6 473.403C770.7 487.203 799.5 501.303 831.8 505.403C900.8 514.003 966.9 485.003 1031.8 466.703C1069.9 456.003 1109.4 448.503 1149.1 453.503C1151 453.703 1151 450.703 1149.1 450.503C1078.8 441.603 1012.4 471.203 946.2 489.503C912.6 498.803 877.8 505.803 842.8 503.503C807.7 501.203 776.8 487.003 745.5 472.103C712.6 456.403 677.2 441.303 639.9 446.803C638 447.003 638.9 449.903 640.7 449.603V449.603Z" fill="#E8E8E8"></path> <path d="M830.1 476.903C918.2 481.603 999.8 442.303 1084.1 423.403C1108.4 418.003 1133.1 414.203 1158.1 413.703C1160 413.703 1160 410.703 1158.1 410.703C1070.1 412.703 989.6 453.203 904 468.703C879.6 473.103 854.9 475.303 830.1 474.003C828.2 473.703 828.2 476.703 830.1 476.903V476.903Z" fill="#E8E8E8"></path> <path d="M660.6 374.602C700.5 377.402 736.9 395.202 773.7 409.102C811.1 423.202 850.1 431.102 890.1 430.102C913 429.502 935.8 426.202 958 420.402C959.9 419.902 959.1 417.002 957.2 417.502C916.9 428.102 874.6 430.102 833.5 423.002C794.3 416.202 759 399.102 721.9 385.802C702.1 378.702 681.7 373.102 660.6 371.702C658.6 371.502 658.7 374.502 660.6 374.602V374.602Z" fill="#E8E8E8"></path> <path d="M931.9 182.303C931.1 187.303 929.8 192.203 928 197.003C927.6 198.003 928.6 198.903 929.4 198.903C993.1 201.703 1056.8 202.303 1120.5 200.603C1122.4 200.503 1122.4 197.503 1120.5 197.603C1056.8 199.303 993 198.803 929.4 195.903C929.9 196.503 930.4 197.203 930.8 197.803C932.6 193.003 933.9 188.203 934.7 183.103C935.1 181.203 932.2 180.403 931.9 182.303V182.303Z" fill="#E8E8E8"></path> <path d="M933.9 183.403C998 184.203 1062 185.003 1126.1 185.803C1128 185.803 1128 182.803 1126.1 182.803C1062 182.003 998 181.203 933.9 180.403C932 180.303 932 183.303 933.9 183.403V183.403Z" fill="#E8E8E8"></path> <path d="M1125.8 184.002C1123.8 188.702 1122.3 193.602 1121.5 198.702C1121.2 200.602 1124.1 201.402 1124.4 199.502C1125.2 194.702 1126.5 190.002 1128.4 185.502C1129.1 183.702 1126.5 182.202 1125.8 184.002V184.002Z" fill="#E8E8E8"></path> <path d="M417.4 757.902C400.3 762.002 383.1 766.102 366 770.202C374.9 826.402 381.9 854.402 386.8 854.002C391 853.702 393.7 832.702 394.9 791.002C404.4 787.702 413.9 784.502 423.4 781.202C421.4 773.502 419.4 765.702 417.4 757.902Z" fill="#414042" stroke="#414042" stroke-width="3"></path> <path d="M534.3 548.403C532.1 555.003 528.8 565.503 525.4 578.803C518.3 606.503 518 618.303 510.8 653.503C502.2 695.403 497.8 702.603 495 706.703C482.3 724.903 464.7 733.203 455.1 737.703C431.9 748.603 410.3 749.603 397.5 749.103C397 755.003 396.5 769.403 405.1 783.903C409.4 791.103 414.5 796.003 418.4 799.103C431.3 799.803 453.5 799.303 478.5 789.603C489.2 785.503 516.5 774.503 537.3 747.203C553.3 726.203 557.7 705.703 562.6 682.703C572.1 638.403 560.3 631.703 572.1 594.103C579.2 571.303 587.4 560.103 581.6 551.703C574.7 541.403 553 544.103 534.3 548.403Z" fill="#5199FF"></path> <path opacity="0.09" d="M535.5 548.502C534.5 559.202 533 574.002 530.9 591.602C529 607.102 526.9 623.902 523.5 643.502C517.6 677.102 514.6 693.902 508.2 707.902C502.6 720.102 491.8 742.702 467 759.802C441.2 777.502 414.5 779.202 402.6 779.302C401.2 776.102 399.8 772.002 398.9 767.302C397.6 760.502 397.6 754.602 398 750.202C405.7 750.302 416.3 749.702 428.6 747.002C450 742.202 464.3 733.502 468 731.202C477.1 725.502 486.6 719.602 494.4 708.002C499.7 700.202 501.9 693.102 505.5 678.302C510.8 656.502 513.5 645.702 515.7 629.702C518.1 611.202 523.4 584.202 535.5 548.502Z" fill="#3D3D3D"></path> <path opacity="0.12" d="M398.2 749.902C397.8 754.302 397.6 760.302 399 767.202C400 772.302 401.5 776.502 402.9 779.802C416.6 776.902 459.7 765.902 486.4 726.502C494.3 714.802 499 703.302 501.9 693.402C499.2 699.702 494.5 708.902 486.2 717.802C471.9 733.102 455.5 738.702 443.7 742.702C433.7 746.202 418.1 750.202 398.2 749.902Z" fill="#3D3D3D"></path> <path d="M527 849.703C519.2 871.203 511.4 892.703 503.6 914.303C558.4 920.703 586.3 921.603 587.3 916.803C588.1 913.103 571.9 905.803 538.9 895.103C543.4 881.803 548 868.503 552.5 855.203C544 853.403 535.5 851.503 527 849.703Z" fill="#414042" stroke="#414042" stroke-width="3"></path> <path d="M608.3 559.803C609.4 574.603 610.4 594.803 610.2 618.603C609.7 684.303 600.8 733.603 598.2 747.003C591.5 782.103 579.9 827.403 559 878.003C552.4 878.303 536.1 878.103 519.8 867.903C509.8 861.603 503.6 854.003 500.2 848.903C506.3 837.303 513.8 822.003 521.1 803.303C534 770.303 539.6 744.003 543.2 726.703C551.3 687.803 555.4 668.403 552.1 647.603C548.9 627.903 543.7 624.503 544.5 607.703C544.7 604.003 547.2 560.903 574.2 552.703C588.1 548.603 601.9 555.803 608.3 559.803Z" fill="#5199FF"></path> <path opacity="0.14" d="M584.6 552.303C593.5 556.103 590.6 581.103 589.8 587.703C579.1 681.903 593.8 631.203 580.9 689.303C563.2 769.103 539.3 845.803 530.9 872.203C528.9 872.203 526.1 872.003 523.1 870.603C520.3 869.303 519.7 867.603 516.3 864.903C512.6 862.003 511.3 862.203 508.5 860.203C506 858.403 502.9 855.203 500.7 849.303C505.9 839.103 512.1 826.003 518.4 810.203C526.4 790.203 530.8 775.003 535.6 758.603C535.6 758.603 550.6 706.903 553.3 667.403C553.8 659.503 553.4 654.103 552.8 650.203C551.9 644.003 550.6 640.903 548.6 633.503C548.1 631.603 545.3 620.803 544.4 612.703C541.9 588.803 554.6 569.603 560.6 562.703C562.7 560.203 565.5 557.503 569.5 555.403C571 554.703 579.7 550.203 584.6 552.303Z" fill="#3D3D3D"></path> <path opacity="0.11" d="M561.7 715.003C560 739.303 554.3 746.503 537.7 806.203C530.4 832.403 525 853.903 521.5 867.703C518.7 866.603 515.2 864.803 511.6 862.003C506.2 857.803 503 853.203 501.2 850.003C506.2 839.703 512.9 825.003 519.4 806.703C522 799.503 523.7 794.003 525.3 789.003C548.1 715.903 551.7 693.703 552.8 678.503C553.7 665.603 553 655.203 552.8 651.903C551.8 638.103 549.4 628.603 549.4 628.603C549.4 628.603 565 667.803 561.7 715.003Z" fill="#3D3D3D"></path> <path d="M435.3 515.103C435.5 514.803 436.5 514.903 438.5 515.103C441.9 515.403 443 515.903 445.2 516.103C447.3 516.203 450.1 516.403 450.9 515.103C452 513.403 448.5 510.103 443.6 503.003C435.2 491.003 435.6 486.803 436.3 484.903C436.5 484.403 437.1 482.503 438.4 482.203C440.1 481.803 442 484.103 443.8 486.403C446.8 490.103 448 493.003 448.3 492.803C448.9 492.603 445.4 485.103 446.2 475.903C446.4 473.403 446.8 469.803 448.6 469.303C450.2 468.803 452.6 470.803 454.5 474.003C454.5 473.603 455 468.103 456.9 467.703C458.4 467.403 460.1 470.303 461.8 473.103C463.2 475.403 464.1 477.503 464.6 478.903C464.5 476.103 466 473.803 468.1 473.103C470.4 472.403 472.5 474.203 472.6 474.303C474.9 476.403 474.7 480.103 474.7 481.403C474.5 487.103 475.1 496.703 476.4 510.703C479 509.703 482.8 507.903 487 505.103C491.3 502.203 495.8 498.403 506.9 485.103C511.2 479.903 513.4 477.303 517.2 472.203C530.9 453.903 539 443.103 547.2 427.803C549.8 422.903 554 414.603 562.7 407.203C565.5 404.803 571 400.303 574.2 402.003C576.5 403.203 576.7 407.003 576.6 412.603C576.5 424.803 576.4 430.803 574.3 439.103C569.5 458.303 560.6 471.703 558.6 474.703C550.7 486.303 542.8 493.003 532.6 501.703C522 510.703 513.2 518.103 499.3 523.703C490.2 527.303 483 528.603 475.4 530.003C462.8 532.203 456.3 533.303 449.8 530.503C440.5 526.503 434.2 516.603 435.3 515.103Z" fill="white"></path> <path d="M573.8 400.602C563 402.102 556.6 412.202 550.8 420.502C543.4 431.102 536.4 442.002 529.2 452.702C522 463.502 514.5 474.103 506 484.003C501.9 488.703 497.7 493.303 493.1 497.503C488 502.303 482.4 507.803 475.7 510.103C473.9 510.703 474.7 513.603 476.5 513.003C487 509.503 495.9 499.503 503.2 491.603C511.6 482.503 519.1 472.602 526.2 462.403C533.4 452.003 540.3 441.302 547.3 430.802C553.9 421.002 561.7 405.302 574.6 403.502C576.5 403.202 575.7 400.402 573.8 400.602V400.602Z" fill="#414042"></path> <path d="M479.2 531.602C492 530.402 502.8 524.502 513.5 517.702C524.1 511.002 534.2 503.302 543.2 494.502C554.8 483.302 564.6 470.002 571.1 455.102C577.5 440.202 580.5 423.902 578.4 407.702C578.2 405.802 575.2 405.802 575.4 407.702C578.8 434.802 568 461.702 550.6 482.302C542.8 491.502 533.7 499.602 524.1 506.802C510.9 516.602 495.9 527.102 479.1 528.702C477.3 528.802 477.3 531.802 479.2 531.602V531.602Z" fill="#414042"></path> <path d="M479.2 528.502C473.3 528.402 467.6 529.802 461.8 530.202C455.1 530.702 449.5 528.702 444 525.002C441.8 523.502 439.4 521.702 438 519.302C435.1 514.202 441.1 517.202 443.2 517.802C446.6 518.802 449.7 518.402 452.3 516.102C453.8 514.802 451.6 512.702 450.2 514.002C445.7 518.002 437.3 509.102 434.3 514.202C432 518.102 437.3 523.702 439.9 525.802C444.4 529.502 449.9 532.502 455.8 533.202C463.6 534.102 471.4 531.402 479.2 531.602C481.1 531.502 481.1 528.502 479.2 528.502V528.502Z" fill="#414042"></path> <path d="M452.5 514.403C450.5 507.703 446 502.503 442.4 496.603C441.9 495.803 435.9 484.903 437.9 484.003C441.4 482.403 446.4 492.503 447.1 494.503C447.7 496.303 450.6 495.503 450 493.703C448.4 489.103 445.6 484.803 441.4 482.003C439.2 480.503 436 479.403 435 482.803C433.7 487.403 437.1 493.603 439.4 497.403C443 503.303 447.7 508.403 449.7 515.203C450.2 517.103 453.1 516.303 452.5 514.403V514.403Z" fill="#414042"></path> <path d="M450.9 493.603C450 489.903 448.8 486.103 448.2 482.303C447.8 480.003 447.7 477.703 447.9 475.403C448.2 472.403 448.8 469.403 451.2 472.903C454.9 478.403 456.1 485.903 457.9 492.103C458.4 494.003 461.3 493.203 460.8 491.303C459.3 486.003 458.1 480.403 455.9 475.303C454.8 472.803 452.3 467.203 448.8 467.203C445.2 467.203 445.1 472.803 444.9 475.303C444.4 481.803 446.4 488.003 448 494.203C448.4 496.303 451.3 495.503 450.9 493.603V493.603Z" fill="#414042"></path> <path d="M457.9 479.403C457.4 477.303 456.4 473.803 457.2 471.703C458.7 467.803 460.9 474.803 461.5 476.303C463.7 481.603 464.9 487.203 465.2 492.903C465.3 494.803 468.3 494.803 468.2 492.903C467.8 487.403 466.9 482.103 465 477.003C463.9 473.903 462.3 468.403 459.3 466.703C452.5 462.803 454.4 477.803 454.9 480.303C455.4 482.103 458.3 481.303 457.9 479.403V479.403Z" fill="#414042"></path> <path d="M468 482.902C467.9 481.902 467.2 476.502 468.4 475.502C471.7 472.602 472.6 477.902 473 479.502C473.7 482.902 473.6 486.702 473.9 490.202C474.4 497.402 474.9 504.502 475.4 511.702C475.5 513.602 478.5 513.602 478.4 511.702C477.9 504.502 477.4 497.402 476.9 490.202C476.6 485.202 477 478.602 474.4 474.102C473 471.702 470.6 469.502 467.8 471.302C464.2 473.702 464.7 480.102 465.2 483.702C465.4 485.602 468.3 484.802 468 482.902V482.902Z" fill="#414042"></path> <path opacity="0.09" d="M574.9 404.103C574.4 404.103 574.8 412.003 571.7 423.003C569.3 431.403 565.4 439.403 552.8 456.003C541.2 471.303 532.8 482.403 518.2 495.403C502.2 509.703 494.2 516.803 483.2 519.503C459.4 525.403 437.5 511.703 435.4 516.303C434.3 518.803 440.3 523.803 442.6 525.503C445.5 527.603 451.1 530.903 464.3 531.103C478.4 531.303 489.2 527.903 491.6 527.103C517 518.703 533.7 502.103 542.6 492.903C554.4 480.903 564 471.103 570.3 454.703C580.4 429.203 575.9 404.103 574.9 404.103Z" fill="#3D3D3D"></path> <path opacity="0.13" d="M572.9 442.702C572.2 442.302 568 449.302 562 457.602C562 457.602 547.6 477.602 529 494.602C518.8 503.902 500.2 518.302 470.7 529.602C476.8 530.002 485.9 529.802 496 526.402C499.2 525.302 507.2 522.302 526.5 505.502C541.9 492.102 550.5 484.702 559.1 471.702C568.4 457.802 573.9 443.202 572.9 442.702Z" fill="#3D3D3D"></path> <path d="M585.4 389.603C579.1 391.803 575.2 395.703 571.1 399.803C559.7 411.303 555.6 424.303 552.4 434.803C542.8 466.403 537.9 482.103 535.7 495.903C533.1 511.603 530.9 532.403 531.6 557.003C536.8 560.603 544.2 565.203 553.6 569.203C564.4 573.803 574.1 577.903 586.6 576.903C591.6 576.503 600.2 575.103 609.8 569.203C610.3 562.703 611.4 552.603 614.3 540.703C619.3 519.603 624.7 513.503 633.5 487.303C640.4 466.603 643.8 456.003 643.3 443.303C642.9 434.403 642.1 417.003 629 403.403C619 393.103 601.1 384.103 585.4 389.603Z" fill="white"></path> <path d="M580.9 390.303C568.9 397.503 561.6 409.503 555.6 421.803C549.2 435.103 544.4 449.103 540.9 463.503C533.6 493.503 531.8 524.603 530.6 555.403C530.5 557.303 533.5 557.303 533.6 555.403C534.7 526.003 536.4 496.503 543 467.703C546.2 453.603 550.6 439.703 556.7 426.503C562.6 413.603 569.9 400.303 582.4 392.903C584 391.903 582.5 389.303 580.9 390.303V390.303Z" fill="#414042"></path> <path d="M619.6 396.803C630.9 405.603 638.7 418.003 641.2 432.103C644 448.203 640.1 464.603 634.7 479.703C629.5 494.303 622.7 508.203 618 523.003C613.3 537.503 610.4 552.603 609.2 567.803C609 569.703 612 569.703 612.2 567.803C613.6 550.703 617.2 533.803 623 517.703C628.5 502.303 635.8 487.603 640.5 471.903C644.7 457.803 646.9 442.503 643.4 427.903C640.3 414.703 632.5 403.003 621.8 394.803C620.2 393.503 618.1 395.603 619.6 396.803V396.803Z" fill="#414042"></path> <path d="M531.2 557.403C543.3 568.203 558.3 575.303 574.4 577.603C587.2 579.403 603.7 579.503 612.1 568.003C613.2 566.403 610.6 564.903 609.5 566.503C601.1 577.903 582.5 576.403 570.3 573.903C556.5 571.103 543.8 564.603 533.3 555.303C531.9 554.003 529.8 556.103 531.2 557.403V557.403Z" fill="#414042"></path> <path opacity="0.11" d="M598.3 390.003C601.7 395.903 589.1 406.803 579.4 423.803C573.2 434.603 570.8 444.003 566.1 462.803C555.1 506.803 557.2 556.803 558.1 571.303C549.5 566.703 541 562.203 532.4 557.603C532.8 547.803 533.6 533.803 535.2 517.003C537.8 490.403 539.3 475.903 544.4 457.103C548.9 440.803 553.3 425.603 565.3 409.303C573.1 398.703 581.4 391.403 587.4 386.803C591.2 386.603 596.5 386.903 598.3 390.003Z" fill="#3D3D3D"></path> <path opacity="0.15" d="M560.1 420.203C561.4 420.603 556.1 441.503 547.6 487.703C542 518.003 540.7 528.903 545.2 542.403C551 559.703 562.7 570.203 560.5 572.503C559.1 573.903 553.1 571.903 532.4 556.403C531.9 534.603 533.3 504.503 542 470.003C548.9 442.703 558.7 419.703 560.1 420.203Z" fill="#3D3D3D"></path> <path d="M653.4 348.803C658.1 353.103 657.5 361.503 656.6 373.703C656 382.203 655.7 386.503 652.8 390.603C646.8 399.103 633.2 403.003 622.5 398.203C621.2 397.603 614.6 394.503 611 387.003C605.8 376.203 611.2 365.403 612.3 363.403C620.7 347.703 645 341.003 653.4 348.803Z" fill="#002D6D"></path> <path d="M653.6 293.503C657.4 294.303 659.7 299.603 664.3 310.303C668.2 319.403 670 326.803 670.8 330.303C672.1 336.403 672.8 341.603 673.1 345.503C670.4 346.303 667.7 347.003 665 347.803C664.4 351.303 663.1 356.503 660.5 362.303C656.9 370.303 653.9 377.203 646.9 380.403C638.8 384.103 630.1 380.803 627.2 379.403C626.1 382.203 624.5 385.403 622.4 388.803C620.9 391.203 619.3 393.203 617.9 394.903C608.8 397.203 604.6 394.803 603 393.603C594.6 387.403 595.3 367.403 608.2 344.803C607.5 343.703 606.4 342.103 605 340.303C602.1 336.703 601.1 336.603 599.8 334.503C599.4 333.903 596.3 328.603 598.8 323.803C600 321.503 602.5 319.503 605.3 319.303C608.7 319.003 609.8 321.703 612.7 322.503C617.7 324.003 623.2 318.603 636.9 305.703C648.4 294.903 650.7 292.903 653.6 293.503Z" fill="white"></path> <path d="M663.2 309.903C667.9 321.703 670.9 334.003 672 346.703C672.1 348.103 674.4 348.103 674.3 346.703C673.2 333.803 670.2 321.303 665.4 309.303C664.9 307.903 662.7 308.503 663.2 309.903V309.903Z" fill="#414042"></path> <path d="M672.6 345.703C669.9 346.003 667.2 346.403 664.5 346.703C663.1 346.903 663.1 349.103 664.5 349.003C667.2 348.703 669.9 348.303 672.6 348.003C674 347.703 674 345.503 672.6 345.703V345.703Z" fill="#414042"></path> <path d="M663.9 347.703C662.1 357.703 658 367.403 651.3 375.103C643.3 384.503 630.6 379.603 620.8 375.603C619.5 375.003 618.9 377.203 620.2 377.803C629.4 381.603 642.6 386.803 650.9 378.803C659.1 371.003 664 359.303 666 348.303C666.3 346.903 664.2 346.303 663.9 347.703V347.703Z" fill="#414042"></path> <path d="M625.7 379.903C623.6 384.703 621 389.203 618 393.503C617.2 394.703 619.1 395.803 619.9 394.603C622.9 390.303 625.5 385.703 627.6 381.003C628.2 379.703 626.3 378.603 625.7 379.903V379.903Z" fill="#414042"></path> <path d="M620 378.103C621.5 379.703 623.2 381.103 625.1 382.103C626.4 382.803 627.5 380.903 626.2 380.203C624.4 379.203 622.9 378.003 621.5 376.503C620.6 375.403 619 377.003 620 378.103V378.103Z" fill="#414042"></path> <path d="M654.8 326.203C654.2 325.003 654.3 323.503 655.1 322.503C654.5 322.303 653.8 322.203 653.2 322.003C653.5 323.703 653.5 325.303 653.4 327.003C653.8 326.603 654.2 326.203 654.5 325.903C654.6 326.103 654.7 326.303 654.9 326.503C655.2 325.103 653 324.503 652.7 325.903C652.4 327.103 653.2 328.203 654.5 328.203C655.2 328.203 655.6 327.703 655.6 327.103C655.8 325.203 655.7 323.403 655.4 321.503C655.3 320.703 654 320.403 653.5 321.003C652 322.903 651.7 325.303 652.9 327.403C653.5 328.603 655.5 327.503 654.8 326.203V326.203Z" fill="#414042"></path> <path d="M648.8 312.703C650.2 309.203 654.2 308.203 657.3 310.203C658.5 311.003 659.6 309.003 658.4 308.303C654 305.403 648.6 307.303 646.6 312.103C646.1 313.503 648.3 314.103 648.8 312.703V312.703Z" fill="#414042"></path> <path d="M644.2 330.703C643.8 330.703 643.3 330.703 642.9 330.703C642.8 330.503 642.8 330.303 642.7 330.103C642.9 329.403 643.2 329.203 643.8 329.403C643.9 329.503 644.1 329.703 644.2 329.803C644.2 329.803 644.2 329.803 644.2 329.703C643.9 329.203 643.2 329.003 642.7 329.303C642.2 329.603 642 330.303 642.3 330.803C642.7 331.303 643.3 331.603 643.9 331.503C644.5 331.303 645 330.803 645 330.103C645 328.603 642.9 328.203 642.2 329.403C641.9 329.903 642.1 330.603 642.6 330.903C643.2 331.403 643.9 331.203 644.2 330.703V330.703Z" fill="#414042"></path> <path d="M649.2 335.303V335.303C649 335.503 648.7 335.803 648.4 336.003C648.4 336.003 648.4 336.003 648.5 336.003C648.3 336.003 648.1 336.003 647.9 336.003C647.9 336.003 647.8 336.003 647.8 335.903C647.7 335.803 647.5 335.603 647.4 335.503V335.603C647.4 335.303 647.3 335.003 647.3 334.703C647.4 334.603 647.5 334.503 647.6 334.403C647.1 334.803 646.9 335.403 647.2 335.903C647.5 336.403 648.3 336.703 648.7 336.303C649.4 335.803 649.9 334.803 649.1 334.103C648.8 333.803 648.3 333.603 647.8 333.803C647.3 333.903 647.1 334.203 646.9 334.703C646.7 335.303 647.1 335.903 647.7 336.103C648.4 336.303 649 335.903 649.2 335.303V335.303Z" fill="#414042"></path> <path d="M641.3 335.403C641.2 335.403 641.2 335.403 641.1 335.403C639.7 335.403 639.6 337.703 641.1 337.703C641.2 337.703 641.2 337.703 641.3 337.703C642.8 337.703 642.8 335.403 641.3 335.403V335.403Z" fill="#414042"></path> <path d="M650.3 350.203C651.9 355.103 654.4 359.503 659.4 361.403C660.7 361.903 661.3 359.803 660 359.203C655.9 357.603 653.8 353.503 652.5 349.503C652 348.203 649.9 348.803 650.3 350.203V350.203Z" fill="#414042"></path> <path d="M650 351.403C650.6 350.503 651.6 350.003 652.8 349.803C653.4 349.703 653.7 348.903 653.6 348.403C653.4 347.703 652.8 347.503 652.2 347.603C650.5 347.803 649.1 348.803 648.1 350.203C647.2 351.403 649.1 352.603 650 351.403V351.403Z" fill="#414042"></path> <path d="M607.5 338.403C601.4 340.603 598.1 331.203 599.2 326.803C599.8 324.503 601.4 321.803 603.8 321.103C607.1 320.103 610.1 322.703 612.2 324.703C613.2 325.703 614.8 324.103 613.8 323.103C611.1 320.503 607.8 318.003 603.8 318.803C600.2 319.503 598 322.903 597.1 326.203C595.5 332.303 600.4 343.303 608.1 340.603C609.5 340.103 608.9 337.903 607.5 338.403V338.403Z" fill="#414042"></path> <path d="M645.7 295.703C644.5 297.103 642.7 299.403 640.6 302.403C633 313.503 633.7 318.003 628.4 321.203C624.3 323.703 618 324.503 613.2 322.503C609.6 321.003 608.6 318.703 605.5 318.803C602.1 318.903 598.9 321.703 597.6 325.003C596 328.903 597.6 332.503 598.7 334.803C599.7 336.903 601.1 340.003 604.1 340.703C606 341.103 607.7 340.403 608.6 339.903C608.5 341.003 608.3 342.703 608.2 344.803C607.7 353.503 608.7 359.503 609.1 363.403C610.1 372.803 611 380.303 608.2 387.403C603.9 398.003 593.2 402.703 589.3 404.403C572.7 411.703 557.3 405.603 555.2 404.703C551.9 403.303 536.1 396.803 532.2 382.003C529.8 373.103 532.5 364.103 533.6 360.303C534.1 358.703 535.4 354.703 538 350.103C543.7 339.903 551.9 333.703 557.6 330.203C559.5 323.303 562.7 313.403 568.3 302.103C574.6 289.303 578.1 282.203 586.1 275.603C598.8 265.103 613.2 263.803 617.9 263.503C620.3 263.303 632.1 262.603 646.1 268.303C656 272.303 667.6 277.103 672.4 289.003C677.9 302.903 670.1 316.703 668.6 319.303C668.2 317.603 667.4 315.003 665.7 312.503C663.2 308.803 660.4 307.303 656.2 304.403C653.5 302.303 649.9 299.603 645.7 295.703Z" fill="#002D6D"></path> <path d="M604.5 394.503C608.8 397.003 613.8 397.603 618.6 396.003C620.4 395.403 619.6 392.503 617.8 393.103C613.8 394.403 609.7 394.003 606 391.903C604.3 391.003 602.8 393.603 604.5 394.503V394.503Z" fill="#414042"></path> <path opacity="0.14" d="M599.8 334.703C600.6 337.003 602.7 338.603 605 338.903C607.5 339.203 610 338.003 611.3 335.803C610.8 339.103 610.3 345.803 613.4 353.203C617.6 363.403 625.8 368.203 629.4 370.303C638.2 375.303 646.6 375.603 650.7 375.503C649.8 377.103 647.8 379.703 644.4 381.403C636.3 385.403 627.8 380.003 627.3 379.703C625.1 384.503 622.8 388.003 621 390.503C618.5 393.903 617.5 394.703 616.8 395.003C612 397.803 605.7 394.903 603.9 394.003C601.9 395.903 599 398.303 595.2 400.603C592 402.503 583.4 407.503 571.5 407.603C571.5 407.603 555.5 407.603 542.6 396.803C537.6 392.603 535.5 388.903 534.9 387.703C534.4 386.703 532.3 382.703 531.8 376.203C530.7 363.703 536.1 353.103 539.1 348.303C544.5 339.703 551.4 334.603 555.8 331.903C555.5 333.003 551.8 348.503 560 356.003C570.3 365.303 593.6 356.503 598.7 343.103C600 339.803 600 336.703 599.8 334.703Z" fill="#3D3D3D"></path> <path opacity="0.07" d="M612 362.403C611.2 362.803 613.1 368.003 614.9 371.703C617.8 377.803 621.4 382.303 624 385.003C624.7 383.203 625.4 381.403 626.1 379.703C628.4 380.703 632.7 382.103 638.1 381.803C641.7 381.603 644.6 380.703 646.6 379.903C631.2 379.603 623.4 374.903 619.1 370.603C615.6 367.103 612.8 362.003 612 362.403Z" fill="#3D3D3D"></path> <path d="M860.4 270.103C859 269.303 858.7 267.403 858.5 266.103C857.8 261.403 861.3 257.603 861.9 256.803C865.6 252.703 867.7 254.803 871.2 251.003C873.8 248.203 873.6 245.903 877.6 242.203C880.2 239.703 881.1 240.003 881.3 240.103C882.7 240.703 881.5 243.803 882.9 248.603C884.1 252.603 885.6 252.603 886.1 256.003C886.2 256.903 886.9 261.403 884.2 264.003C883 265.203 881.4 265.503 878.1 266.103C874.3 266.803 873.8 266.403 871.2 266.903C864.9 268.103 862.7 271.403 860.4 270.103Z" fill="white"></path> <path d="M860.1 265.903C845 281.503 829.9 297.203 814.8 312.803C812.9 315.003 812.8 318.303 814.5 320.503C816.4 322.903 819.8 323.503 822.5 321.803C838 303.803 853.4 285.703 868.9 267.703C866 267.103 863.1 266.503 860.1 265.903Z" fill="#414042"></path> <path d="M805.5 351.302C806 352.602 804.4 355.302 795.7 361.102C793.2 360.602 791.1 359.202 790.7 357.402C790.1 354.402 794.4 351.902 796.3 351.002C799.8 349.402 804.8 349.502 805.5 351.302Z" fill="#414042"></path> <path d="M629.6 392.503C624.2 393.703 614.7 396.003 610.3 403.803C607.4 408.903 608 414.303 608.2 416.203C609.2 424.703 615.1 431.803 621.8 434.903C630 438.603 638.5 435.803 642.8 434.303C680.2 421.403 698.9 415.003 706.5 411.203C728.5 400.103 753 387.603 780.9 364.403C788.1 358.403 793.8 353.103 797.8 349.303C799.4 350.203 803 351.903 807.3 351.403C810.8 351.003 813.1 349.403 816.5 347.003C818.9 345.303 821.7 343.303 824.2 339.603C826.6 336.103 827.4 333.003 828.1 330.403C828.8 327.503 830.2 322.303 828.4 321.203C827.1 320.403 825.7 322.603 822.2 322.703C821.9 322.703 817.6 322.703 815.7 320.003C813.9 317.503 815.8 315.203 814.2 313.203C812.5 311.003 808.1 311.203 805.3 312.003C798.8 314.003 795.7 321.203 793.7 325.003C788.2 335.903 780.3 341.803 765.6 352.903C754.2 361.503 744 365.503 730.3 371.003C724.9 373.203 714.6 377.203 701 380.503C678.1 385.903 660 385.703 629.6 392.503Z" fill="white"></path> <path d="M613.2 402.803C623.5 392.503 639.7 392.103 653.3 390.203C669.2 388.003 685.1 385.603 700.7 381.903C728.4 375.503 755.9 364.803 777.6 346.003C783.3 341.003 788.6 335.503 793 329.203C797 323.503 804.6 306.703 814 314.703C815.5 315.903 817.6 313.803 816.1 312.603C812.5 309.503 807.7 309.303 803.5 311.403C797.6 314.403 794.9 321.003 791.4 326.303C782.3 340.103 768.5 350.703 754.3 358.803C724.4 375.803 690 381.903 656.4 386.803C641.2 389.003 622.8 389.203 611.2 400.703C609.7 402.003 611.8 404.103 613.2 402.803V402.803Z" fill="#414042"></path> <path d="M611 399.203C604.3 410.603 605.6 425.703 616.8 433.803C630.2 443.503 649 434.303 662.7 429.603C695 418.403 725.8 403.203 754.4 384.403C770.3 374.003 785.4 362.403 799.7 349.903C801.2 348.603 799 346.503 797.6 347.803C752.7 387.003 698.2 418.003 640.4 433.503C630.5 436.203 620.2 435.603 613.8 426.603C608.2 418.903 608.9 408.703 613.6 400.803C614.6 399.103 612 397.603 611 399.203V399.203Z" fill="#414042"></path> <path d="M826.5 319.103C827 321.403 827.5 323.903 827.3 326.303C826.9 329.603 825.3 330.703 824.1 333.403C823.6 334.603 823.5 335.803 823.1 337.003C822.3 339.703 821.2 340.303 819.3 341.903C817.2 343.603 816 345.603 814.2 347.503C811.3 350.603 809.6 349.603 806 349.203C803.4 348.903 800.7 348.503 798.1 348.203C796.2 348.003 796.2 351.003 798.1 351.203C802.4 351.803 809.7 354.303 813.7 352.203C815.3 351.403 816.2 349.903 817.2 348.503C818.5 346.703 819.7 345.203 821.7 344.203C822.7 343.703 823.2 344.103 824.1 343.303C825.2 342.403 825.5 340.903 825.8 339.603C826.5 336.403 827.5 334.303 828.9 331.503C831 327.403 830.3 322.803 829.4 318.503C829 316.403 826.1 317.203 826.5 319.103V319.103Z" fill="#414042"></path> <path d="M814.2 313.503C811.9 316.903 813.7 321.803 817.3 323.403C821.5 325.303 826.2 322.503 828.3 318.803C829.3 317.103 826.7 315.603 825.7 317.303C824.4 319.603 821.7 321.703 819 320.803C816.6 320.103 815.3 317.103 816.8 315.003C817.8 313.403 815.2 311.903 814.2 313.503V313.503Z" fill="#414042"></path> <path d="M816.1 314.903C831.2 299.203 846.1 283.303 860.8 267.203C862.1 265.803 860 263.603 858.7 265.103C844 281.203 829.1 297.103 814 312.803C812.6 314.103 814.7 316.303 816.1 314.903V314.903Z" fill="#414042"></path> <path d="M828.2 318.103C842.6 301.503 856.9 284.903 871.3 268.303C872.6 266.803 870.4 264.703 869.2 266.203C854.8 282.803 840.5 299.403 826.1 316.003C824.8 317.503 826.9 319.603 828.2 318.103V318.103Z" fill="#414042"></path> <path d="M804.3 350.903C802.4 352.803 800.5 354.803 798.6 356.703C798 357.303 797.1 358.603 796.4 359.003C793.9 360.303 792.6 357.803 791.7 356.203C790.7 354.503 788.1 356.003 789.1 357.703C790.6 360.203 793.1 363.403 796.4 362.403C798.2 361.903 799.5 360.103 800.7 358.803C802.6 356.903 804.5 354.903 806.4 353.003C807.8 351.603 805.6 349.503 804.3 350.903V350.903Z" fill="#414042"></path> <path d="M870.5 267.903C876.5 270.603 883.8 269.003 886.9 262.803C888.4 259.803 888.5 256.203 887.4 253.103C885.5 248.103 878.6 243.703 884.7 238.503C886.2 237.203 884 235.103 882.6 236.403C879.1 239.403 878.1 244.003 880.4 248.003C882.6 251.903 886.1 254.103 885 259.203C883.8 265.203 877.4 267.703 872.1 265.303C870.2 264.503 868.7 267.103 870.5 267.903V267.903Z" fill="#414042"></path> <path d="M860.6 264.603C861.2 260.203 862.8 257.303 866.7 255.103C868.7 254.003 870.8 253.103 872.6 251.703C876.3 248.703 877.4 243.203 881.8 241.003C883.5 240.103 882 237.603 880.3 238.403C877.8 239.603 876.3 241.503 874.9 243.903C872.7 247.403 870.7 249.703 867 251.603C861 254.703 858.5 257.803 857.6 264.603C857.4 266.503 860.4 266.503 860.6 264.603V264.603Z" fill="#414042"></path> <path d="M860.1 267.502C862.9 266.402 865.8 266.802 868.2 268.602C869.7 269.802 871.2 267.202 869.7 266.002C866.7 263.702 862.7 263.202 859.2 264.602C857.5 265.302 858.3 268.202 860.1 267.502V267.502Z" fill="#414042"></path> <path d="M870 253.703C873.9 252.403 877.9 252.303 881.9 253.303C883.8 253.803 884.6 250.903 882.7 250.403C878.2 249.303 873.6 249.403 869.2 250.803C867.4 251.403 868.2 254.303 870 253.703V253.703Z" fill="#002D6D"></path> <path d="M868.3 253.703C875.6 250.603 877.8 242.103 884.6 238.303C884 237.503 883.4 236.703 882.8 235.903C877.6 240.603 882.2 247.003 883.5 252.203C884.2 251.603 885 251.103 885.7 250.503C881.9 248.903 878.1 248.203 874 248.503C874.4 249.303 874.9 250.003 875.3 250.803C876.7 248.103 878.4 245.703 880.3 243.303C879.5 242.803 878.6 242.303 877.8 241.803C877 243.903 876 246.503 876.4 248.703C876.5 249.303 877.2 249.803 877.8 249.803C880.2 249.703 880.8 246.403 881.6 244.603C880.7 244.303 879.7 244.103 878.8 243.803C879 245.303 879.5 247.103 879.3 248.703C879.5 248.303 879.8 247.803 880 247.403C879.3 247.803 876.6 247.503 875.4 247.803C873.4 248.203 871.7 248.903 869.9 249.903C868.6 250.603 869.2 252.803 870.7 252.703C873.2 252.503 875.7 252.203 878.2 252.003C880.1 251.803 880.1 248.803 878.2 249.003C875.7 249.203 873.2 249.503 870.7 249.703C871 250.603 871.2 251.603 871.5 252.503C873.6 251.403 875.9 250.603 878.3 250.503C879.2 250.403 880.6 250.803 881.4 250.203C883.2 248.903 882 245.803 881.8 243.903C881.6 242.603 879.7 241.603 879 243.103C878.9 243.403 877.3 246.803 877.8 246.803C878.3 247.203 878.8 247.503 879.2 247.903C878.9 246.403 880.1 243.903 880.6 242.603C881.1 241.203 879 240.003 878.1 241.103C876 243.603 874.2 246.303 872.6 249.203C872.1 250.103 872.7 251.603 873.9 251.503C877.5 251.203 880.8 251.703 884.1 253.103C885.3 253.603 886.7 252.803 886.3 251.403C885.3 247.403 880.9 241.503 884.8 238.003C886.1 236.803 884.4 234.803 883 235.603C876.3 239.403 873.9 247.903 866.7 251.003C865 251.903 866.6 254.403 868.3 253.703V253.703Z" fill="#002D6D"></path> <path d="M882.9 235.203C878.7 237.803 876.1 241.703 873 245.403C871.1 247.703 869 249.103 866.9 251.103C866.1 251.803 865.4 252.203 865.4 253.303C865.4 253.503 865.5 253.803 865.8 253.903C872.1 256.603 879.1 249.403 885.3 254.503C885.7 254.803 886.2 254.803 886.5 254.303C888.3 251.703 884.3 249.203 882.8 247.603C882.3 247.103 881.3 247.603 881.5 248.303C881.8 249.303 881.7 249.203 882.4 250.003C883 250.803 884.3 250.003 883.7 249.203C883.5 248.703 883.2 248.303 883 247.803C882.6 248.003 882.2 248.303 881.7 248.503C882.4 249.203 886.1 252.103 885.2 253.403C885.6 253.303 886 253.303 886.4 253.203C884.3 251.503 881.9 250.703 879.1 250.803C877.5 250.903 875.9 251.203 874.3 251.503C873 251.803 871.8 252.103 870.5 252.203C869.1 252.403 867.4 253.203 868.5 251.303C869.1 250.303 870.9 249.403 871.7 248.603C872.9 247.403 874 246.103 875 244.703C877.6 241.503 880 238.303 883.5 236.103C884.5 236.003 883.7 234.703 882.9 235.203V235.203Z" fill="#002D6D"></path> <path d="M867.5 254.403C870.5 254.803 873.4 253.803 876.4 253.403C878.9 253.103 880.9 253.503 883.2 254.303C884.5 254.803 885.3 255.103 886.7 254.903C887.2 254.803 887.5 254.503 887.4 254.003C887.2 252.703 886.9 252.003 886.2 250.903C885.7 250.103 884.4 250.903 884.9 251.703C885.6 252.503 885.9 253.403 886 254.403C886.2 254.103 886.5 253.803 886.7 253.503C883.9 253.803 881.1 251.803 878.2 251.803C874.8 251.903 871.3 253.503 867.9 253.003C866.9 252.803 866.5 254.203 867.5 254.403V254.403Z" fill="#002D6D"></path> <path d="M881.7 237.803C882.2 237.103 882.8 236.503 883.6 236.103C883.8 236.003 884.5 235.503 884.7 235.703C885 235.903 884.2 236.503 884 236.603C882.8 237.603 882 238.903 881.4 240.303C881 241.203 882.5 241.603 882.8 240.703C883.4 239.303 884.4 238.403 885.5 237.303C886.2 236.703 886.6 235.803 885.9 234.903C884.4 232.903 881.5 235.503 880.5 236.803C880 237.503 881.1 238.603 881.7 237.803V237.803Z" fill="#002D6D"></path> <path d="M885.1 234.503C883.4 235.603 882.2 237.303 881.7 239.303C881.5 240.203 882.9 240.603 883.1 239.703C883.5 238.103 884.4 236.803 885.8 235.803C886.7 235.203 885.9 233.903 885.1 234.503V234.503Z" fill="#002D6D"></path> <path d="M612.2 402.603C615.4 396.303 627 393.903 633.4 393.103C635.3 392.803 634.5 389.903 632.6 390.203C625.4 391.203 613.3 394.003 609.6 401.103C608.8 402.803 611.4 404.403 612.2 402.603V402.603Z" fill="#414042"></path> <path opacity="0.13" d="M608.8 417.103C617.8 416.503 630.9 415.303 646.4 412.303C690.8 403.803 722.4 387.303 741.7 377.103C757.7 368.603 778.9 355.903 802.2 337.603C812.4 334.303 818.7 329.803 822.7 326.203C825.4 323.803 827.4 321.403 828.4 321.903C830 322.803 827.5 331.103 824.1 337.103C821.1 342.503 817.6 345.603 816.5 346.603C813.7 349.003 812.1 350.703 809.4 351.403C804.4 352.703 799.9 350.003 798.4 349.003C794.7 351.903 789.3 356.203 782.6 361.303C755.6 381.803 742 392.103 724.1 401.903C707.6 410.903 693.8 416.303 666.9 426.703C664.4 427.703 661.1 428.803 654.5 431.003C636.9 436.903 632.7 437.603 627.8 436.703C625.8 436.303 620.9 435.403 616.4 431.503C610.5 426.203 609.2 419.403 608.8 417.103Z" fill="#3D3D3D"></path> <path opacity="0.19" d="M688.1 417.803C687.9 417.503 689.6 416.103 727.1 392.303C776.5 360.903 773 363.703 778.2 359.903C799.8 343.903 809.4 333.103 814.4 336.303C817.8 338.503 818.4 346.503 814.7 350.003C811.5 353.103 804.8 352.803 798.8 348.403C786.7 359.203 768.7 373.903 745 388.803C717 406.103 688.8 419.003 688.1 417.803Z" fill="#3D3D3D"></path> </svg> 